<mxfile host="app.diagrams.net" modified="2023-08-13T14:59:08.978Z" agent="Mozilla/5.0 (Macintosh; Intel Mac OS X 10_15_7) AppleWebKit/537.36 (KHTML, like Gecko) Chrome/115.0.0.0 Safari/537.36" etag="2YUlYfPf-eVPFOyZOGyz" version="21.6.5" type="github">
  <diagram name="ページ1" id="8HY6VedauCYr4UUrt4xP">
    <mxGraphModel dx="3250" dy="1968" grid="1" gridSize="10" guides="1" tooltips="1" connect="1" arrows="1" fold="1" page="1" pageScale="1" pageWidth="827" pageHeight="1169" math="0" shadow="0">
      <root>
        <mxCell id="0" />
        <mxCell id="1" parent="0" />
        <mxCell id="chc9OdD4yWV7xc_dcuEu-1" style="edgeStyle=orthogonalEdgeStyle;rounded=0;orthogonalLoop=1;jettySize=auto;html=1;exitX=1;exitY=0.5;exitDx=0;exitDy=0;entryX=0.383;entryY=0.95;entryDx=0;entryDy=0;entryPerimeter=0;" edge="1" parent="1" source="chc9OdD4yWV7xc_dcuEu-2" target="chc9OdD4yWV7xc_dcuEu-8">
          <mxGeometry relative="1" as="geometry" />
        </mxCell>
        <mxCell id="chc9OdD4yWV7xc_dcuEu-2" value="" style="shape=process;whiteSpace=wrap;html=1;backgroundOutline=1;" vertex="1" parent="1">
          <mxGeometry x="5" y="300" width="210" height="60" as="geometry" />
        </mxCell>
        <mxCell id="chc9OdD4yWV7xc_dcuEu-3" value="" style="rounded=0;html=1;jettySize=auto;orthogonalLoop=1;fontSize=11;endArrow=block;endFill=0;endSize=8;strokeWidth=1;shadow=0;labelBackgroundColor=none;edgeStyle=orthogonalEdgeStyle;" edge="1" parent="1" source="chc9OdD4yWV7xc_dcuEu-4" target="chc9OdD4yWV7xc_dcuEu-7">
          <mxGeometry relative="1" as="geometry" />
        </mxCell>
        <mxCell id="chc9OdD4yWV7xc_dcuEu-4" value="開始" style="rounded=1;whiteSpace=wrap;html=1;fontSize=12;glass=0;strokeWidth=1;shadow=0;" vertex="1" parent="1">
          <mxGeometry x="50" y="20" width="120" height="30" as="geometry" />
        </mxCell>
        <mxCell id="chc9OdD4yWV7xc_dcuEu-5" style="edgeStyle=orthogonalEdgeStyle;rounded=0;orthogonalLoop=1;jettySize=auto;html=1;exitX=0.5;exitY=1;exitDx=0;exitDy=0;entryX=0.5;entryY=0;entryDx=0;entryDy=0;" edge="1" parent="1" source="chc9OdD4yWV7xc_dcuEu-7" target="chc9OdD4yWV7xc_dcuEu-22">
          <mxGeometry relative="1" as="geometry" />
        </mxCell>
        <mxCell id="chc9OdD4yWV7xc_dcuEu-6" style="edgeStyle=orthogonalEdgeStyle;rounded=0;orthogonalLoop=1;jettySize=auto;html=1;exitX=1;exitY=0.5;exitDx=0;exitDy=0;" edge="1" parent="1" source="chc9OdD4yWV7xc_dcuEu-7" target="chc9OdD4yWV7xc_dcuEu-26">
          <mxGeometry relative="1" as="geometry" />
        </mxCell>
        <mxCell id="chc9OdD4yWV7xc_dcuEu-7" value="configファイルがあるか" style="rhombus;whiteSpace=wrap;html=1;shadow=0;fontFamily=Helvetica;fontSize=12;align=center;strokeWidth=1;spacing=6;spacingTop=-4;" vertex="1" parent="1">
          <mxGeometry x="40" y="70" width="140" height="60" as="geometry" />
        </mxCell>
        <mxCell id="chc9OdD4yWV7xc_dcuEu-8" value="終了" style="rounded=1;whiteSpace=wrap;html=1;fontSize=12;glass=0;strokeWidth=1;shadow=0;fillColor=#f8cecc;strokeColor=#b85450;" vertex="1" parent="1">
          <mxGeometry x="310" y="20" width="120" height="40" as="geometry" />
        </mxCell>
        <mxCell id="chc9OdD4yWV7xc_dcuEu-9" value="Yes" style="rounded=0;html=1;jettySize=auto;orthogonalLoop=1;fontSize=11;endArrow=block;endFill=0;endSize=8;strokeWidth=1;shadow=0;labelBackgroundColor=none;edgeStyle=orthogonalEdgeStyle;entryX=0.5;entryY=0;entryDx=0;entryDy=0;" edge="1" parent="1" source="chc9OdD4yWV7xc_dcuEu-11" target="chc9OdD4yWV7xc_dcuEu-14">
          <mxGeometry x="0.6667" y="20" relative="1" as="geometry">
            <mxPoint as="offset" />
            <mxPoint x="110" y="270" as="targetPoint" />
          </mxGeometry>
        </mxCell>
        <mxCell id="chc9OdD4yWV7xc_dcuEu-10" style="edgeStyle=orthogonalEdgeStyle;rounded=0;orthogonalLoop=1;jettySize=auto;html=1;exitX=1;exitY=0.5;exitDx=0;exitDy=0;entryX=0.25;entryY=1;entryDx=0;entryDy=0;" edge="1" parent="1" source="chc9OdD4yWV7xc_dcuEu-11" target="chc9OdD4yWV7xc_dcuEu-8">
          <mxGeometry relative="1" as="geometry" />
        </mxCell>
        <mxCell id="chc9OdD4yWV7xc_dcuEu-11" value="configファイルの形式は合っているか" style="rhombus;whiteSpace=wrap;html=1;shadow=0;fontFamily=Helvetica;fontSize=12;align=center;strokeWidth=1;spacing=6;spacingTop=-4;" vertex="1" parent="1">
          <mxGeometry x="35" y="220" width="150" height="60" as="geometry" />
        </mxCell>
        <mxCell id="chc9OdD4yWV7xc_dcuEu-12" style="edgeStyle=orthogonalEdgeStyle;rounded=0;orthogonalLoop=1;jettySize=auto;html=1;exitX=0.5;exitY=1;exitDx=0;exitDy=0;entryX=0.5;entryY=0;entryDx=0;entryDy=0;" edge="1" parent="1" source="chc9OdD4yWV7xc_dcuEu-97" target="chc9OdD4yWV7xc_dcuEu-85">
          <mxGeometry relative="1" as="geometry">
            <mxPoint x="110" y="560" as="targetPoint" />
          </mxGeometry>
        </mxCell>
        <mxCell id="chc9OdD4yWV7xc_dcuEu-13" style="edgeStyle=orthogonalEdgeStyle;rounded=0;orthogonalLoop=1;jettySize=auto;html=1;exitX=1;exitY=0.5;exitDx=0;exitDy=0;entryX=0.5;entryY=1;entryDx=0;entryDy=0;" edge="1" parent="1" source="chc9OdD4yWV7xc_dcuEu-14" target="chc9OdD4yWV7xc_dcuEu-8">
          <mxGeometry relative="1" as="geometry">
            <Array as="points">
              <mxPoint x="195" y="400" />
              <mxPoint x="370" y="400" />
            </Array>
          </mxGeometry>
        </mxCell>
        <mxCell id="chc9OdD4yWV7xc_dcuEu-14" value="" style="shape=process;whiteSpace=wrap;html=1;backgroundOutline=1;" vertex="1" parent="1">
          <mxGeometry x="25" y="385" width="170" height="50" as="geometry" />
        </mxCell>
        <mxCell id="chc9OdD4yWV7xc_dcuEu-15" style="edgeStyle=orthogonalEdgeStyle;rounded=0;orthogonalLoop=1;jettySize=auto;html=1;exitX=0.5;exitY=1;exitDx=0;exitDy=0;entryX=0.5;entryY=0;entryDx=0;entryDy=0;" edge="1" parent="1" source="chc9OdD4yWV7xc_dcuEu-85" target="chc9OdD4yWV7xc_dcuEu-19">
          <mxGeometry relative="1" as="geometry">
            <mxPoint x="110" y="500" as="targetPoint" />
            <mxPoint x="110" y="590" as="sourcePoint" />
          </mxGeometry>
        </mxCell>
        <mxCell id="chc9OdD4yWV7xc_dcuEu-16" value="No" style="text;html=1;strokeColor=none;fillColor=none;align=center;verticalAlign=middle;whiteSpace=wrap;rounded=0;" vertex="1" parent="1">
          <mxGeometry y="750" width="60" height="30" as="geometry" />
        </mxCell>
        <mxCell id="chc9OdD4yWV7xc_dcuEu-17" style="edgeStyle=orthogonalEdgeStyle;rounded=0;orthogonalLoop=1;jettySize=auto;html=1;exitX=0;exitY=0.5;exitDx=0;exitDy=0;entryX=0.25;entryY=0;entryDx=0;entryDy=0;" edge="1" parent="1" source="chc9OdD4yWV7xc_dcuEu-19" target="chc9OdD4yWV7xc_dcuEu-85">
          <mxGeometry relative="1" as="geometry">
            <Array as="points">
              <mxPoint x="10" y="810" />
              <mxPoint x="10" y="710" />
              <mxPoint x="80" y="710" />
            </Array>
            <mxPoint x="80" y="560" as="targetPoint" />
          </mxGeometry>
        </mxCell>
        <mxCell id="chc9OdD4yWV7xc_dcuEu-18" style="edgeStyle=orthogonalEdgeStyle;rounded=0;orthogonalLoop=1;jettySize=auto;html=1;exitX=0.5;exitY=1;exitDx=0;exitDy=0;entryX=0.5;entryY=0;entryDx=0;entryDy=0;" edge="1" parent="1" source="chc9OdD4yWV7xc_dcuEu-19" target="chc9OdD4yWV7xc_dcuEu-20">
          <mxGeometry relative="1" as="geometry" />
        </mxCell>
        <mxCell id="chc9OdD4yWV7xc_dcuEu-19" value="終了ステータスを受け取る" style="rhombus;whiteSpace=wrap;html=1;" vertex="1" parent="1">
          <mxGeometry x="50" y="790" width="120" height="40" as="geometry" />
        </mxCell>
        <mxCell id="chc9OdD4yWV7xc_dcuEu-20" value="終了" style="rounded=1;whiteSpace=wrap;html=1;fontSize=12;glass=0;strokeWidth=1;shadow=0;fillColor=#f8cecc;strokeColor=#b85450;" vertex="1" parent="1">
          <mxGeometry x="49.5" y="850" width="120" height="30" as="geometry" />
        </mxCell>
        <mxCell id="chc9OdD4yWV7xc_dcuEu-21" style="edgeStyle=orthogonalEdgeStyle;rounded=0;orthogonalLoop=1;jettySize=auto;html=1;exitX=0.5;exitY=1;exitDx=0;exitDy=0;entryX=0.5;entryY=0;entryDx=0;entryDy=0;" edge="1" parent="1" source="chc9OdD4yWV7xc_dcuEu-22" target="chc9OdD4yWV7xc_dcuEu-11">
          <mxGeometry relative="1" as="geometry" />
        </mxCell>
        <mxCell id="chc9OdD4yWV7xc_dcuEu-22" value="configファイルの&lt;br&gt;読み込み" style="shape=process;whiteSpace=wrap;html=1;backgroundOutline=1;" vertex="1" parent="1">
          <mxGeometry x="41.25" y="150" width="137.5" height="40" as="geometry" />
        </mxCell>
        <mxCell id="chc9OdD4yWV7xc_dcuEu-23" style="edgeStyle=orthogonalEdgeStyle;rounded=0;orthogonalLoop=1;jettySize=auto;html=1;exitX=0.5;exitY=1;exitDx=0;exitDy=0;entryX=0.5;entryY=0;entryDx=0;entryDy=0;" edge="1" parent="1" source="chc9OdD4yWV7xc_dcuEu-24" target="chc9OdD4yWV7xc_dcuEu-29">
          <mxGeometry relative="1" as="geometry" />
        </mxCell>
        <mxCell id="chc9OdD4yWV7xc_dcuEu-24" value="configファイル&lt;br&gt;の読み込み" style="shape=process;whiteSpace=wrap;html=1;backgroundOutline=1;" vertex="1" parent="1">
          <mxGeometry x="-140" y="22.5" width="120" height="35" as="geometry" />
        </mxCell>
        <mxCell id="chc9OdD4yWV7xc_dcuEu-25" style="edgeStyle=orthogonalEdgeStyle;rounded=0;orthogonalLoop=1;jettySize=auto;html=1;exitX=0.5;exitY=1;exitDx=0;exitDy=0;entryX=0.5;entryY=0;entryDx=0;entryDy=0;" edge="1" parent="1" source="chc9OdD4yWV7xc_dcuEu-26" target="chc9OdD4yWV7xc_dcuEu-11">
          <mxGeometry relative="1" as="geometry">
            <Array as="points">
              <mxPoint x="259" y="200" />
              <mxPoint x="110" y="200" />
            </Array>
          </mxGeometry>
        </mxCell>
        <mxCell id="chc9OdD4yWV7xc_dcuEu-26" value="事前に用意した&lt;br&gt;configの読み込み" style="shape=process;whiteSpace=wrap;html=1;backgroundOutline=1;" vertex="1" parent="1">
          <mxGeometry x="190" y="150" width="137.5" height="40" as="geometry" />
        </mxCell>
        <mxCell id="chc9OdD4yWV7xc_dcuEu-27" value="No" style="text;html=1;strokeColor=none;fillColor=none;align=center;verticalAlign=middle;whiteSpace=wrap;rounded=0;" vertex="1" parent="1">
          <mxGeometry x="250" y="220" width="60" height="30" as="geometry" />
        </mxCell>
        <mxCell id="chc9OdD4yWV7xc_dcuEu-28" style="edgeStyle=orthogonalEdgeStyle;rounded=0;orthogonalLoop=1;jettySize=auto;html=1;exitX=0.5;exitY=1;exitDx=0;exitDy=0;entryX=0.5;entryY=0;entryDx=0;entryDy=0;" edge="1" parent="1" source="chc9OdD4yWV7xc_dcuEu-29" target="chc9OdD4yWV7xc_dcuEu-31">
          <mxGeometry relative="1" as="geometry" />
        </mxCell>
        <mxCell id="chc9OdD4yWV7xc_dcuEu-29" value="ifstreamを用いて&lt;br&gt;ファイルを開く" style="rounded=0;whiteSpace=wrap;html=1;" vertex="1" parent="1">
          <mxGeometry x="-140" y="80" width="120" height="40" as="geometry" />
        </mxCell>
        <mxCell id="chc9OdD4yWV7xc_dcuEu-30" style="edgeStyle=orthogonalEdgeStyle;rounded=0;orthogonalLoop=1;jettySize=auto;html=1;exitX=0.5;exitY=1;exitDx=0;exitDy=0;entryX=0.5;entryY=0;entryDx=0;entryDy=0;" edge="1" parent="1" source="chc9OdD4yWV7xc_dcuEu-31" target="chc9OdD4yWV7xc_dcuEu-33">
          <mxGeometry relative="1" as="geometry" />
        </mxCell>
        <mxCell id="chc9OdD4yWV7xc_dcuEu-31" value="ファイル内部の&lt;br&gt;読み込み" style="rounded=0;whiteSpace=wrap;html=1;" vertex="1" parent="1">
          <mxGeometry x="-140" y="150" width="120" height="40" as="geometry" />
        </mxCell>
        <mxCell id="chc9OdD4yWV7xc_dcuEu-32" style="edgeStyle=orthogonalEdgeStyle;rounded=0;orthogonalLoop=1;jettySize=auto;html=1;exitX=0.5;exitY=1;exitDx=0;exitDy=0;entryX=0.5;entryY=0;entryDx=0;entryDy=0;" edge="1" parent="1" source="chc9OdD4yWV7xc_dcuEu-33" target="chc9OdD4yWV7xc_dcuEu-34">
          <mxGeometry relative="1" as="geometry" />
        </mxCell>
        <mxCell id="chc9OdD4yWV7xc_dcuEu-33" value="変数に格納" style="rounded=0;whiteSpace=wrap;html=1;" vertex="1" parent="1">
          <mxGeometry x="-140" y="210" width="120" height="20" as="geometry" />
        </mxCell>
        <mxCell id="chc9OdD4yWV7xc_dcuEu-34" value="終了" style="rounded=1;whiteSpace=wrap;html=1;fillColor=#f8cecc;strokeColor=#b85450;" vertex="1" parent="1">
          <mxGeometry x="-140" y="250" width="120" height="30" as="geometry" />
        </mxCell>
        <mxCell id="chc9OdD4yWV7xc_dcuEu-35" value="読み込んだファイルをサーバーごとに設定" style="rhombus;whiteSpace=wrap;html=1;" vertex="1" parent="1">
          <mxGeometry x="29" y="305" width="161" height="50" as="geometry" />
        </mxCell>
        <mxCell id="chc9OdD4yWV7xc_dcuEu-36" value="configファイルにエラー" style="text;html=1;strokeColor=none;fillColor=none;align=center;verticalAlign=middle;whiteSpace=wrap;rounded=0;" vertex="1" parent="1">
          <mxGeometry x="240" y="300" width="100" height="30" as="geometry" />
        </mxCell>
        <mxCell id="chc9OdD4yWV7xc_dcuEu-37" value="Yes" style="text;html=1;strokeColor=none;fillColor=none;align=center;verticalAlign=middle;whiteSpace=wrap;rounded=0;" vertex="1" parent="1">
          <mxGeometry x="100" y="275" width="60" height="30" as="geometry" />
        </mxCell>
        <mxCell id="chc9OdD4yWV7xc_dcuEu-38" style="edgeStyle=orthogonalEdgeStyle;rounded=0;orthogonalLoop=1;jettySize=auto;html=1;exitX=0.5;exitY=1;exitDx=0;exitDy=0;entryX=0.5;entryY=0;entryDx=0;entryDy=0;" edge="1" parent="1" source="chc9OdD4yWV7xc_dcuEu-39" target="chc9OdD4yWV7xc_dcuEu-41">
          <mxGeometry relative="1" as="geometry" />
        </mxCell>
        <mxCell id="chc9OdD4yWV7xc_dcuEu-39" value="読み込んだファイルをサーバーごとに設定" style="shape=process;whiteSpace=wrap;html=1;backgroundOutline=1;" vertex="1" parent="1">
          <mxGeometry x="-502.5" y="-200" width="170" height="35" as="geometry" />
        </mxCell>
        <mxCell id="chc9OdD4yWV7xc_dcuEu-40" style="edgeStyle=orthogonalEdgeStyle;rounded=0;orthogonalLoop=1;jettySize=auto;html=1;exitX=0.5;exitY=1;exitDx=0;exitDy=0;entryX=0.5;entryY=0;entryDx=0;entryDy=0;" edge="1" parent="1" source="chc9OdD4yWV7xc_dcuEu-41" target="chc9OdD4yWV7xc_dcuEu-44">
          <mxGeometry relative="1" as="geometry" />
        </mxCell>
        <mxCell id="chc9OdD4yWV7xc_dcuEu-41" value="server {&amp;nbsp;&lt;br&gt;というふうな記載があればそれが一つのサーバー情報とみなす" style="rounded=0;whiteSpace=wrap;html=1;" vertex="1" parent="1">
          <mxGeometry x="-512.5" y="-145" width="190" height="50" as="geometry" />
        </mxCell>
        <mxCell id="chc9OdD4yWV7xc_dcuEu-42" style="edgeStyle=orthogonalEdgeStyle;rounded=0;orthogonalLoop=1;jettySize=auto;html=1;exitX=1;exitY=0.5;exitDx=0;exitDy=0;entryX=0.5;entryY=0;entryDx=0;entryDy=0;" edge="1" parent="1" source="chc9OdD4yWV7xc_dcuEu-44" target="chc9OdD4yWV7xc_dcuEu-45">
          <mxGeometry relative="1" as="geometry">
            <mxPoint x="-315.5" y="-30" as="targetPoint" />
          </mxGeometry>
        </mxCell>
        <mxCell id="chc9OdD4yWV7xc_dcuEu-43" style="edgeStyle=orthogonalEdgeStyle;rounded=0;orthogonalLoop=1;jettySize=auto;html=1;exitX=0.5;exitY=1;exitDx=0;exitDy=0;entryX=0.5;entryY=0;entryDx=0;entryDy=0;" edge="1" parent="1" source="chc9OdD4yWV7xc_dcuEu-44" target="chc9OdD4yWV7xc_dcuEu-47">
          <mxGeometry relative="1" as="geometry" />
        </mxCell>
        <mxCell id="chc9OdD4yWV7xc_dcuEu-44" value="server{に無駄な書き込みがあるか" style="rhombus;whiteSpace=wrap;html=1;" vertex="1" parent="1">
          <mxGeometry x="-492.5" y="-75" width="150" height="50" as="geometry" />
        </mxCell>
        <mxCell id="chc9OdD4yWV7xc_dcuEu-45" value="エラーを起こし終了" style="rounded=1;whiteSpace=wrap;html=1;fillColor=#e1d5e7;strokeColor=#9673a6;" vertex="1" parent="1">
          <mxGeometry x="-332.5" y="120" width="120" height="30" as="geometry" />
        </mxCell>
        <mxCell id="chc9OdD4yWV7xc_dcuEu-46" style="edgeStyle=orthogonalEdgeStyle;rounded=0;orthogonalLoop=1;jettySize=auto;html=1;exitX=0.5;exitY=1;exitDx=0;exitDy=0;entryX=0.5;entryY=0;entryDx=0;entryDy=0;" edge="1" parent="1" source="chc9OdD4yWV7xc_dcuEu-47" target="chc9OdD4yWV7xc_dcuEu-50">
          <mxGeometry relative="1" as="geometry" />
        </mxCell>
        <mxCell id="chc9OdD4yWV7xc_dcuEu-47" value="情報を変数に格納していく" style="rounded=0;whiteSpace=wrap;html=1;" vertex="1" parent="1">
          <mxGeometry x="-477.5" y="20" width="120" height="40" as="geometry" />
        </mxCell>
        <mxCell id="chc9OdD4yWV7xc_dcuEu-48" style="edgeStyle=orthogonalEdgeStyle;rounded=0;orthogonalLoop=1;jettySize=auto;html=1;exitX=0;exitY=0.5;exitDx=0;exitDy=0;" edge="1" parent="1" source="chc9OdD4yWV7xc_dcuEu-50">
          <mxGeometry relative="1" as="geometry">
            <mxPoint x="-492.5" y="110" as="sourcePoint" />
            <mxPoint x="-452.5" y="18" as="targetPoint" />
            <Array as="points">
              <mxPoint x="-462.5" y="111" />
              <mxPoint x="-512.5" y="111" />
              <mxPoint x="-512.5" y="3" />
              <mxPoint x="-452.5" y="3" />
            </Array>
          </mxGeometry>
        </mxCell>
        <mxCell id="chc9OdD4yWV7xc_dcuEu-49" style="edgeStyle=orthogonalEdgeStyle;rounded=0;orthogonalLoop=1;jettySize=auto;html=1;exitX=0.5;exitY=1;exitDx=0;exitDy=0;entryX=0.5;entryY=0;entryDx=0;entryDy=0;" edge="1" parent="1" source="chc9OdD4yWV7xc_dcuEu-50" target="chc9OdD4yWV7xc_dcuEu-54">
          <mxGeometry relative="1" as="geometry" />
        </mxCell>
        <mxCell id="chc9OdD4yWV7xc_dcuEu-50" value="ファイルの最終行まで&lt;br&gt;行ったか" style="rhombus;whiteSpace=wrap;html=1;" vertex="1" parent="1">
          <mxGeometry x="-487.5" y="80" width="140" height="65" as="geometry" />
        </mxCell>
        <mxCell id="chc9OdD4yWV7xc_dcuEu-51" value="No" style="text;html=1;strokeColor=none;fillColor=none;align=center;verticalAlign=middle;whiteSpace=wrap;rounded=0;" vertex="1" parent="1">
          <mxGeometry x="-547.5" y="110" width="60" height="30" as="geometry" />
        </mxCell>
        <mxCell id="chc9OdD4yWV7xc_dcuEu-52" style="edgeStyle=orthogonalEdgeStyle;rounded=0;orthogonalLoop=1;jettySize=auto;html=1;exitX=1;exitY=0.5;exitDx=0;exitDy=0;entryX=0.5;entryY=1;entryDx=0;entryDy=0;" edge="1" parent="1" source="chc9OdD4yWV7xc_dcuEu-54" target="chc9OdD4yWV7xc_dcuEu-45">
          <mxGeometry relative="1" as="geometry">
            <mxPoint x="-285.5" as="targetPoint" />
          </mxGeometry>
        </mxCell>
        <mxCell id="chc9OdD4yWV7xc_dcuEu-53" style="edgeStyle=orthogonalEdgeStyle;rounded=0;orthogonalLoop=1;jettySize=auto;html=1;exitX=0.5;exitY=1;exitDx=0;exitDy=0;entryX=0.5;entryY=0;entryDx=0;entryDy=0;" edge="1" parent="1" source="chc9OdD4yWV7xc_dcuEu-54" target="chc9OdD4yWV7xc_dcuEu-57">
          <mxGeometry relative="1" as="geometry" />
        </mxCell>
        <mxCell id="chc9OdD4yWV7xc_dcuEu-54" value="ファイルは空だったか" style="rhombus;whiteSpace=wrap;html=1;" vertex="1" parent="1">
          <mxGeometry x="-492.5" y="165" width="150" height="45" as="geometry" />
        </mxCell>
        <mxCell id="chc9OdD4yWV7xc_dcuEu-55" value="Yes" style="text;html=1;strokeColor=none;fillColor=none;align=center;verticalAlign=middle;whiteSpace=wrap;rounded=0;" vertex="1" parent="1">
          <mxGeometry x="-402.5" y="140" width="60" height="30" as="geometry" />
        </mxCell>
        <mxCell id="chc9OdD4yWV7xc_dcuEu-56" value="Yes" style="text;html=1;strokeColor=none;fillColor=none;align=center;verticalAlign=middle;whiteSpace=wrap;rounded=0;" vertex="1" parent="1">
          <mxGeometry x="-342.5" y="-75" width="60" height="30" as="geometry" />
        </mxCell>
        <mxCell id="chc9OdD4yWV7xc_dcuEu-57" value="終了" style="rounded=1;whiteSpace=wrap;html=1;fillColor=#f8cecc;strokeColor=#b85450;" vertex="1" parent="1">
          <mxGeometry x="-477.5" y="235" width="120" height="30" as="geometry" />
        </mxCell>
        <mxCell id="chc9OdD4yWV7xc_dcuEu-58" value="No" style="text;html=1;strokeColor=none;fillColor=none;align=center;verticalAlign=middle;whiteSpace=wrap;rounded=0;" vertex="1" parent="1">
          <mxGeometry x="-402.5" y="205" width="60" height="30" as="geometry" />
        </mxCell>
        <mxCell id="chc9OdD4yWV7xc_dcuEu-59" value="port &amp;nbsp;8000&lt;br&gt;&lt;br&gt;server情報１&lt;br&gt;server情報2&lt;br&gt;&lt;br&gt;port 80&lt;br&gt;&lt;br&gt;server情報1&lt;br&gt;&lt;br&gt;みたいに格納する" style="whiteSpace=wrap;html=1;aspect=fixed;" vertex="1" parent="1">
          <mxGeometry x="-707.5" y="20" width="150" height="150" as="geometry" />
        </mxCell>
        <mxCell id="chc9OdD4yWV7xc_dcuEu-60" value="" style="endArrow=none;dashed=1;html=1;dashPattern=1 3;strokeWidth=2;rounded=0;entryX=1.027;entryY=0.133;entryDx=0;entryDy=0;exitX=0;exitY=0.5;exitDx=0;exitDy=0;entryPerimeter=0;" edge="1" parent="1" source="chc9OdD4yWV7xc_dcuEu-47" target="chc9OdD4yWV7xc_dcuEu-59">
          <mxGeometry width="50" height="50" relative="1" as="geometry">
            <mxPoint x="-712.5" y="225" as="sourcePoint" />
            <mxPoint x="-567.5" y="90" as="targetPoint" />
          </mxGeometry>
        </mxCell>
        <mxCell id="chc9OdD4yWV7xc_dcuEu-61" value="servers config&lt;br&gt;と名付ける" style="text;html=1;strokeColor=none;fillColor=none;align=center;verticalAlign=middle;whiteSpace=wrap;rounded=0;" vertex="1" parent="1">
          <mxGeometry x="-690" y="-10" width="115" height="30" as="geometry" />
        </mxCell>
        <mxCell id="chc9OdD4yWV7xc_dcuEu-62" value="ソケットの立ち上げ" style="rhombus;whiteSpace=wrap;html=1;" vertex="1" parent="1">
          <mxGeometry x="34.5" y="385" width="150" height="50" as="geometry" />
        </mxCell>
        <mxCell id="chc9OdD4yWV7xc_dcuEu-63" style="edgeStyle=orthogonalEdgeStyle;rounded=0;orthogonalLoop=1;jettySize=auto;html=1;exitX=0.5;exitY=1;exitDx=0;exitDy=0;entryX=0.5;entryY=0;entryDx=0;entryDy=0;" edge="1" parent="1" source="chc9OdD4yWV7xc_dcuEu-64" target="chc9OdD4yWV7xc_dcuEu-67">
          <mxGeometry relative="1" as="geometry" />
        </mxCell>
        <mxCell id="chc9OdD4yWV7xc_dcuEu-64" value="ソケットの立ち上げ" style="shape=process;whiteSpace=wrap;html=1;backgroundOutline=1;" vertex="1" parent="1">
          <mxGeometry x="-725.6199999999999" y="413" width="91.25" height="42" as="geometry" />
        </mxCell>
        <mxCell id="chc9OdD4yWV7xc_dcuEu-65" style="edgeStyle=orthogonalEdgeStyle;rounded=0;orthogonalLoop=1;jettySize=auto;html=1;exitX=1;exitY=0.5;exitDx=0;exitDy=0;entryX=0.25;entryY=0;entryDx=0;entryDy=0;" edge="1" parent="1" source="chc9OdD4yWV7xc_dcuEu-67" target="chc9OdD4yWV7xc_dcuEu-68">
          <mxGeometry relative="1" as="geometry">
            <Array as="points">
              <mxPoint x="-519.37" y="498" />
            </Array>
          </mxGeometry>
        </mxCell>
        <mxCell id="chc9OdD4yWV7xc_dcuEu-66" style="edgeStyle=orthogonalEdgeStyle;rounded=0;orthogonalLoop=1;jettySize=auto;html=1;exitX=0.5;exitY=1;exitDx=0;exitDy=0;entryX=0.5;entryY=0;entryDx=0;entryDy=0;" edge="1" parent="1" source="chc9OdD4yWV7xc_dcuEu-67" target="chc9OdD4yWV7xc_dcuEu-72">
          <mxGeometry relative="1" as="geometry" />
        </mxCell>
        <mxCell id="chc9OdD4yWV7xc_dcuEu-67" value="port情報をアドレスに" style="rhombus;whiteSpace=wrap;html=1;" vertex="1" parent="1">
          <mxGeometry x="-754.9899999999999" y="475" width="150" height="45" as="geometry" />
        </mxCell>
        <mxCell id="chc9OdD4yWV7xc_dcuEu-68" value="エラーを起こし終了" style="rounded=1;whiteSpace=wrap;html=1;fillColor=#e1d5e7;strokeColor=#9673a6;" vertex="1" parent="1">
          <mxGeometry x="-549.37" y="520" width="120" height="30" as="geometry" />
        </mxCell>
        <mxCell id="chc9OdD4yWV7xc_dcuEu-69" value="エラー" style="text;html=1;strokeColor=none;fillColor=none;align=center;verticalAlign=middle;whiteSpace=wrap;rounded=0;" vertex="1" parent="1">
          <mxGeometry x="-579.37" y="465" width="60" height="30" as="geometry" />
        </mxCell>
        <mxCell id="chc9OdD4yWV7xc_dcuEu-70" style="edgeStyle=orthogonalEdgeStyle;rounded=0;orthogonalLoop=1;jettySize=auto;html=1;exitX=1;exitY=0.5;exitDx=0;exitDy=0;entryX=0.5;entryY=1;entryDx=0;entryDy=0;" edge="1" parent="1" source="chc9OdD4yWV7xc_dcuEu-72" target="chc9OdD4yWV7xc_dcuEu-68">
          <mxGeometry relative="1" as="geometry" />
        </mxCell>
        <mxCell id="chc9OdD4yWV7xc_dcuEu-71" style="edgeStyle=orthogonalEdgeStyle;rounded=0;orthogonalLoop=1;jettySize=auto;html=1;exitX=0.5;exitY=1;exitDx=0;exitDy=0;entryX=0.5;entryY=0;entryDx=0;entryDy=0;" edge="1" parent="1" source="chc9OdD4yWV7xc_dcuEu-72" target="chc9OdD4yWV7xc_dcuEu-76">
          <mxGeometry relative="1" as="geometry" />
        </mxCell>
        <mxCell id="chc9OdD4yWV7xc_dcuEu-72" value="socket関数でsocketの作成" style="rhombus;whiteSpace=wrap;html=1;" vertex="1" parent="1">
          <mxGeometry x="-764.9899999999999" y="535" width="170" height="40" as="geometry" />
        </mxCell>
        <mxCell id="chc9OdD4yWV7xc_dcuEu-73" value="エラー" style="text;html=1;strokeColor=none;fillColor=none;align=center;verticalAlign=middle;whiteSpace=wrap;rounded=0;" vertex="1" parent="1">
          <mxGeometry x="-479.37" y="595" width="60" height="30" as="geometry" />
        </mxCell>
        <mxCell id="chc9OdD4yWV7xc_dcuEu-74" style="edgeStyle=orthogonalEdgeStyle;rounded=0;orthogonalLoop=1;jettySize=auto;html=1;exitX=1;exitY=0.5;exitDx=0;exitDy=0;entryX=0.5;entryY=1;entryDx=0;entryDy=0;" edge="1" parent="1" source="chc9OdD4yWV7xc_dcuEu-76" target="chc9OdD4yWV7xc_dcuEu-68">
          <mxGeometry relative="1" as="geometry" />
        </mxCell>
        <mxCell id="chc9OdD4yWV7xc_dcuEu-75" style="edgeStyle=orthogonalEdgeStyle;rounded=0;orthogonalLoop=1;jettySize=auto;html=1;exitX=0.5;exitY=1;exitDx=0;exitDy=0;entryX=0.5;entryY=0;entryDx=0;entryDy=0;" edge="1" parent="1" source="chc9OdD4yWV7xc_dcuEu-76" target="chc9OdD4yWV7xc_dcuEu-79">
          <mxGeometry relative="1" as="geometry" />
        </mxCell>
        <mxCell id="chc9OdD4yWV7xc_dcuEu-76" value="bind関数でsocketをポートと&lt;br&gt;紐付け" style="rhombus;whiteSpace=wrap;html=1;" vertex="1" parent="1">
          <mxGeometry x="-764.9899999999999" y="595" width="170" height="40" as="geometry" />
        </mxCell>
        <mxCell id="chc9OdD4yWV7xc_dcuEu-77" style="edgeStyle=orthogonalEdgeStyle;rounded=0;orthogonalLoop=1;jettySize=auto;html=1;exitX=1;exitY=0.5;exitDx=0;exitDy=0;" edge="1" parent="1" source="chc9OdD4yWV7xc_dcuEu-79">
          <mxGeometry relative="1" as="geometry">
            <mxPoint x="-489.37" y="575" as="targetPoint" />
          </mxGeometry>
        </mxCell>
        <mxCell id="chc9OdD4yWV7xc_dcuEu-78" style="edgeStyle=orthogonalEdgeStyle;rounded=0;orthogonalLoop=1;jettySize=auto;html=1;exitX=0.5;exitY=1;exitDx=0;exitDy=0;entryX=0.5;entryY=0;entryDx=0;entryDy=0;" edge="1" parent="1" source="chc9OdD4yWV7xc_dcuEu-79" target="chc9OdD4yWV7xc_dcuEu-82">
          <mxGeometry relative="1" as="geometry" />
        </mxCell>
        <mxCell id="chc9OdD4yWV7xc_dcuEu-79" value="listenでアクセスを待てる状態に" style="rhombus;whiteSpace=wrap;html=1;" vertex="1" parent="1">
          <mxGeometry x="-764.9899999999999" y="650" width="170" height="40" as="geometry" />
        </mxCell>
        <mxCell id="chc9OdD4yWV7xc_dcuEu-80" style="edgeStyle=orthogonalEdgeStyle;rounded=0;orthogonalLoop=1;jettySize=auto;html=1;exitX=1;exitY=0.5;exitDx=0;exitDy=0;entryX=0.5;entryY=1;entryDx=0;entryDy=0;" edge="1" parent="1" source="chc9OdD4yWV7xc_dcuEu-82" target="chc9OdD4yWV7xc_dcuEu-68">
          <mxGeometry relative="1" as="geometry" />
        </mxCell>
        <mxCell id="chc9OdD4yWV7xc_dcuEu-81" style="edgeStyle=orthogonalEdgeStyle;rounded=0;orthogonalLoop=1;jettySize=auto;html=1;exitX=0.5;exitY=1;exitDx=0;exitDy=0;entryX=0.5;entryY=0;entryDx=0;entryDy=0;" edge="1" parent="1" source="chc9OdD4yWV7xc_dcuEu-82" target="chc9OdD4yWV7xc_dcuEu-83">
          <mxGeometry relative="1" as="geometry" />
        </mxCell>
        <mxCell id="chc9OdD4yWV7xc_dcuEu-82" value="fcntl関数を用いて&lt;br&gt;fdにフラグを設定する" style="rhombus;whiteSpace=wrap;html=1;" vertex="1" parent="1">
          <mxGeometry x="-764.9899999999999" y="710" width="170" height="40" as="geometry" />
        </mxCell>
        <mxCell id="chc9OdD4yWV7xc_dcuEu-83" value="終了" style="rounded=1;whiteSpace=wrap;html=1;fillColor=#f8cecc;strokeColor=#b85450;" vertex="1" parent="1">
          <mxGeometry x="-739.9899999999999" y="775" width="120" height="30" as="geometry" />
        </mxCell>
        <mxCell id="chc9OdD4yWV7xc_dcuEu-84" value="" style="edgeStyle=orthogonalEdgeStyle;rounded=0;orthogonalLoop=1;jettySize=auto;html=1;exitX=0.5;exitY=1;exitDx=0;exitDy=0;entryX=0.5;entryY=0;entryDx=0;entryDy=0;" edge="1" parent="1" target="chc9OdD4yWV7xc_dcuEu-85">
          <mxGeometry relative="1" as="geometry">
            <mxPoint x="110" y="650" as="targetPoint" />
            <mxPoint x="110" y="590" as="sourcePoint" />
          </mxGeometry>
        </mxCell>
        <mxCell id="chc9OdD4yWV7xc_dcuEu-85" value="アクセスに合わせた挙動" style="shape=process;whiteSpace=wrap;html=1;backgroundOutline=1;" vertex="1" parent="1">
          <mxGeometry x="49.5" y="730" width="120" height="40" as="geometry" />
        </mxCell>
        <mxCell id="chc9OdD4yWV7xc_dcuEu-86" style="edgeStyle=orthogonalEdgeStyle;rounded=0;orthogonalLoop=1;jettySize=auto;html=1;exitX=0.5;exitY=1;exitDx=0;exitDy=0;entryX=0.5;entryY=0;entryDx=0;entryDy=0;" edge="1" parent="1" source="chc9OdD4yWV7xc_dcuEu-87" target="chc9OdD4yWV7xc_dcuEu-90">
          <mxGeometry relative="1" as="geometry" />
        </mxCell>
        <mxCell id="chc9OdD4yWV7xc_dcuEu-87" value="アクセスに合わせた挙動" style="shape=process;whiteSpace=wrap;html=1;backgroundOutline=1;" vertex="1" parent="1">
          <mxGeometry x="390" y="630" width="120" height="40" as="geometry" />
        </mxCell>
        <mxCell id="chc9OdD4yWV7xc_dcuEu-88" style="edgeStyle=orthogonalEdgeStyle;rounded=0;orthogonalLoop=1;jettySize=auto;html=1;exitX=0;exitY=0.5;exitDx=0;exitDy=0;entryX=0.5;entryY=0;entryDx=0;entryDy=0;" edge="1" parent="1" source="chc9OdD4yWV7xc_dcuEu-90" target="chc9OdD4yWV7xc_dcuEu-91">
          <mxGeometry relative="1" as="geometry" />
        </mxCell>
        <mxCell id="chc9OdD4yWV7xc_dcuEu-89" style="edgeStyle=orthogonalEdgeStyle;rounded=0;orthogonalLoop=1;jettySize=auto;html=1;exitX=0.5;exitY=1;exitDx=0;exitDy=0;entryX=0.5;entryY=0;entryDx=0;entryDy=0;" edge="1" parent="1" source="chc9OdD4yWV7xc_dcuEu-90" target="chc9OdD4yWV7xc_dcuEu-109">
          <mxGeometry relative="1" as="geometry" />
        </mxCell>
        <mxCell id="chc9OdD4yWV7xc_dcuEu-90" value="何かしらのアクセスが制限時間内できたか" style="rhombus;whiteSpace=wrap;html=1;" vertex="1" parent="1">
          <mxGeometry x="360" y="700" width="180" height="40" as="geometry" />
        </mxCell>
        <mxCell id="chc9OdD4yWV7xc_dcuEu-91" value="次の待ち時間に入る" style="rounded=1;whiteSpace=wrap;html=1;fillColor=#f8cecc;strokeColor=#b85450;" vertex="1" parent="1">
          <mxGeometry x="207.5" y="750" width="120" height="30" as="geometry" />
        </mxCell>
        <mxCell id="chc9OdD4yWV7xc_dcuEu-92" value="No" style="text;html=1;strokeColor=none;fillColor=none;align=center;verticalAlign=middle;whiteSpace=wrap;rounded=0;" vertex="1" parent="1">
          <mxGeometry x="267.5" y="692.5" width="60" height="30" as="geometry" />
        </mxCell>
        <mxCell id="chc9OdD4yWV7xc_dcuEu-93" value="FDの集合体&lt;br&gt;を作る" style="shape=process;whiteSpace=wrap;html=1;backgroundOutline=1;" vertex="1" parent="1">
          <mxGeometry x="50" y="660" width="120" height="40" as="geometry" />
        </mxCell>
        <mxCell id="chc9OdD4yWV7xc_dcuEu-94" value="シグナルの&lt;br&gt;設定を行う" style="rounded=1;whiteSpace=wrap;html=1;" vertex="1" parent="1">
          <mxGeometry x="50" y="595" width="120" height="45" as="geometry" />
        </mxCell>
        <mxCell id="chc9OdD4yWV7xc_dcuEu-95" value="" style="edgeStyle=orthogonalEdgeStyle;rounded=0;orthogonalLoop=1;jettySize=auto;html=1;exitX=0.5;exitY=1;exitDx=0;exitDy=0;entryX=0.5;entryY=0;entryDx=0;entryDy=0;" edge="1" parent="1" source="chc9OdD4yWV7xc_dcuEu-14" target="chc9OdD4yWV7xc_dcuEu-97">
          <mxGeometry relative="1" as="geometry">
            <mxPoint x="110" y="730" as="targetPoint" />
            <mxPoint x="110" y="435" as="sourcePoint" />
          </mxGeometry>
        </mxCell>
        <mxCell id="chc9OdD4yWV7xc_dcuEu-96" style="edgeStyle=orthogonalEdgeStyle;rounded=0;orthogonalLoop=1;jettySize=auto;html=1;exitX=0;exitY=0.5;exitDx=0;exitDy=0;entryX=0;entryY=0.5;entryDx=0;entryDy=0;" edge="1" parent="1" source="chc9OdD4yWV7xc_dcuEu-97" target="chc9OdD4yWV7xc_dcuEu-14">
          <mxGeometry relative="1" as="geometry" />
        </mxCell>
        <mxCell id="chc9OdD4yWV7xc_dcuEu-97" value="まだ立ち上げていないportがあるか" style="rhombus;whiteSpace=wrap;html=1;" vertex="1" parent="1">
          <mxGeometry x="45" y="510" width="130" height="45" as="geometry" />
        </mxCell>
        <mxCell id="chc9OdD4yWV7xc_dcuEu-98" value="ソケット情報を変数に格納" style="rounded=0;whiteSpace=wrap;html=1;" vertex="1" parent="1">
          <mxGeometry x="35" y="460" width="150" height="30" as="geometry" />
        </mxCell>
        <mxCell id="chc9OdD4yWV7xc_dcuEu-99" value="Yes" style="text;html=1;strokeColor=none;fillColor=none;align=center;verticalAlign=middle;whiteSpace=wrap;rounded=0;" vertex="1" parent="1">
          <mxGeometry y="530" width="60" height="30" as="geometry" />
        </mxCell>
        <mxCell id="chc9OdD4yWV7xc_dcuEu-100" value="No" style="text;html=1;strokeColor=none;fillColor=none;align=center;verticalAlign=middle;whiteSpace=wrap;rounded=0;" vertex="1" parent="1">
          <mxGeometry x="100" y="555" width="60" height="30" as="geometry" />
        </mxCell>
        <mxCell id="chc9OdD4yWV7xc_dcuEu-101" value="sockerで作成したfd ex3&lt;br&gt;&lt;br&gt;server情報１&lt;br&gt;server情報2&lt;br&gt;&lt;br&gt;sockerで作成したfd ex4&lt;br&gt;&lt;br&gt;server情報１&lt;br style=&quot;border-color: var(--border-color);&quot;&gt;server情報2&lt;br&gt;&lt;br&gt;みたいに格納する" style="whiteSpace=wrap;html=1;aspect=fixed;" vertex="1" parent="1">
          <mxGeometry x="-190" y="440" width="160" height="160" as="geometry" />
        </mxCell>
        <mxCell id="chc9OdD4yWV7xc_dcuEu-102" value="socket立ち上げ時にエラー" style="text;html=1;strokeColor=none;fillColor=none;align=center;verticalAlign=middle;whiteSpace=wrap;rounded=0;" vertex="1" parent="1">
          <mxGeometry x="230" y="360" width="100" height="30" as="geometry" />
        </mxCell>
        <mxCell id="chc9OdD4yWV7xc_dcuEu-103" value="" style="endArrow=none;dashed=1;html=1;dashPattern=1 3;strokeWidth=2;rounded=0;entryX=1;entryY=0.5;entryDx=0;entryDy=0;" edge="1" parent="1" target="chc9OdD4yWV7xc_dcuEu-104">
          <mxGeometry width="50" height="50" relative="1" as="geometry">
            <mxPoint x="-190" y="520" as="sourcePoint" />
            <mxPoint x="410" y="920" as="targetPoint" />
          </mxGeometry>
        </mxCell>
        <mxCell id="chc9OdD4yWV7xc_dcuEu-104" value="server情報１、２はそれぞれ&lt;br&gt;&lt;br&gt;server情報{&lt;br&gt;servername&lt;br&gt;port&lt;br&gt;location&lt;br&gt;}&lt;br&gt;などの情報が格納されているものとなっている" style="whiteSpace=wrap;html=1;aspect=fixed;" vertex="1" parent="1">
          <mxGeometry x="-375" y="522.5" width="160" height="160" as="geometry" />
        </mxCell>
        <mxCell id="chc9OdD4yWV7xc_dcuEu-105" value="ここでのアクセスは&lt;br&gt;アクセス者による&lt;br&gt;要求に他ならない" style="ellipse;shape=cloud;whiteSpace=wrap;html=1;" vertex="1" parent="1">
          <mxGeometry x="620" y="637.5" width="150" height="85" as="geometry" />
        </mxCell>
        <mxCell id="chc9OdD4yWV7xc_dcuEu-106" value="" style="endArrow=none;dashed=1;html=1;dashPattern=1 3;strokeWidth=2;rounded=0;entryX=0.16;entryY=0.55;entryDx=0;entryDy=0;entryPerimeter=0;exitX=0.967;exitY=0.475;exitDx=0;exitDy=0;exitPerimeter=0;" edge="1" parent="1" source="chc9OdD4yWV7xc_dcuEu-90" target="chc9OdD4yWV7xc_dcuEu-105">
          <mxGeometry width="50" height="50" relative="1" as="geometry">
            <mxPoint x="550" y="830" as="sourcePoint" />
            <mxPoint x="600" y="780" as="targetPoint" />
          </mxGeometry>
        </mxCell>
        <mxCell id="chc9OdD4yWV7xc_dcuEu-107" style="edgeStyle=orthogonalEdgeStyle;rounded=0;orthogonalLoop=1;jettySize=auto;html=1;exitX=0;exitY=0.5;exitDx=0;exitDy=0;" edge="1" parent="1" source="chc9OdD4yWV7xc_dcuEu-109">
          <mxGeometry relative="1" as="geometry">
            <mxPoint x="300" y="780" as="targetPoint" />
            <Array as="points">
              <mxPoint x="300" y="820" />
            </Array>
          </mxGeometry>
        </mxCell>
        <mxCell id="chc9OdD4yWV7xc_dcuEu-108" style="edgeStyle=orthogonalEdgeStyle;rounded=0;orthogonalLoop=1;jettySize=auto;html=1;exitX=0.5;exitY=1;exitDx=0;exitDy=0;entryX=0.5;entryY=0;entryDx=0;entryDy=0;" edge="1" parent="1" source="chc9OdD4yWV7xc_dcuEu-109" target="chc9OdD4yWV7xc_dcuEu-114">
          <mxGeometry relative="1" as="geometry" />
        </mxCell>
        <mxCell id="chc9OdD4yWV7xc_dcuEu-109" value="要求をaccept関数で受け付けられたか" style="rhombus;whiteSpace=wrap;html=1;" vertex="1" parent="1">
          <mxGeometry x="390" y="790" width="120" height="60" as="geometry" />
        </mxCell>
        <mxCell id="chc9OdD4yWV7xc_dcuEu-110" value="No" style="text;html=1;strokeColor=none;fillColor=none;align=center;verticalAlign=middle;whiteSpace=wrap;rounded=0;" vertex="1" parent="1">
          <mxGeometry x="327.5" y="795" width="60" height="30" as="geometry" />
        </mxCell>
        <mxCell id="chc9OdD4yWV7xc_dcuEu-111" value="" style="endArrow=none;dashed=1;html=1;dashPattern=1 3;strokeWidth=2;rounded=0;entryX=-0.05;entryY=0.55;entryDx=0;entryDy=0;entryPerimeter=0;exitX=1;exitY=0.25;exitDx=0;exitDy=0;" edge="1" parent="1" source="chc9OdD4yWV7xc_dcuEu-112" target="chc9OdD4yWV7xc_dcuEu-93">
          <mxGeometry width="50" height="50" relative="1" as="geometry">
            <mxPoint x="-57" y="673" as="sourcePoint" />
            <mxPoint x="-40" y="660" as="targetPoint" />
          </mxGeometry>
        </mxCell>
        <mxCell id="chc9OdD4yWV7xc_dcuEu-112" value="socketで作成したFDを&lt;br&gt;管理するFDの集合体&lt;br&gt;&lt;br&gt;acceptで追加したFDを&lt;br style=&quot;border-color: var(--border-color);&quot;&gt;管理するFDの集合体&lt;br&gt;&lt;br&gt;（sendも同じ）&lt;br&gt;というふうに作成する必要がある" style="whiteSpace=wrap;html=1;aspect=fixed;" vertex="1" parent="1">
          <mxGeometry x="-170" y="650" width="140" height="140" as="geometry" />
        </mxCell>
        <mxCell id="chc9OdD4yWV7xc_dcuEu-113" style="edgeStyle=orthogonalEdgeStyle;rounded=0;orthogonalLoop=1;jettySize=auto;html=1;exitX=0.5;exitY=1;exitDx=0;exitDy=0;entryX=0.5;entryY=0;entryDx=0;entryDy=0;" edge="1" parent="1" source="chc9OdD4yWV7xc_dcuEu-114" target="chc9OdD4yWV7xc_dcuEu-116">
          <mxGeometry relative="1" as="geometry" />
        </mxCell>
        <mxCell id="chc9OdD4yWV7xc_dcuEu-114" value="acceptによって&lt;br&gt;出来たfdをfdのlist&lt;br&gt;に追加する" style="rounded=0;whiteSpace=wrap;html=1;" vertex="1" parent="1">
          <mxGeometry x="390" y="890" width="120" height="50" as="geometry" />
        </mxCell>
        <mxCell id="chc9OdD4yWV7xc_dcuEu-115" style="edgeStyle=orthogonalEdgeStyle;rounded=0;orthogonalLoop=1;jettySize=auto;html=1;exitX=0.5;exitY=1;exitDx=0;exitDy=0;" edge="1" parent="1" source="chc9OdD4yWV7xc_dcuEu-116" target="chc9OdD4yWV7xc_dcuEu-152">
          <mxGeometry relative="1" as="geometry" />
        </mxCell>
        <mxCell id="chc9OdD4yWV7xc_dcuEu-116" value="" style="shape=process;whiteSpace=wrap;html=1;backgroundOutline=1;" vertex="1" parent="1">
          <mxGeometry x="355" y="975" width="190" height="70" as="geometry" />
        </mxCell>
        <mxCell id="chc9OdD4yWV7xc_dcuEu-117" value="acceptによって出来たfdで情報を受け取る" style="rhombus;whiteSpace=wrap;html=1;" vertex="1" parent="1">
          <mxGeometry x="365" y="980" width="170" height="60" as="geometry" />
        </mxCell>
        <mxCell id="chc9OdD4yWV7xc_dcuEu-118" value="エラーが起きる" style="text;html=1;strokeColor=none;fillColor=none;align=center;verticalAlign=middle;whiteSpace=wrap;rounded=0;" vertex="1" parent="1">
          <mxGeometry x="248.75" y="890" width="95" height="30" as="geometry" />
        </mxCell>
        <mxCell id="chc9OdD4yWV7xc_dcuEu-119" value="" style="endArrow=none;dashed=1;html=1;dashPattern=1 3;strokeWidth=2;rounded=0;entryX=0;entryY=0.5;entryDx=0;entryDy=0;exitX=1;exitY=0.5;exitDx=0;exitDy=0;" edge="1" parent="1" source="chc9OdD4yWV7xc_dcuEu-24" target="chc9OdD4yWV7xc_dcuEu-22">
          <mxGeometry width="50" height="50" relative="1" as="geometry">
            <mxPoint x="-120" y="400" as="sourcePoint" />
            <mxPoint x="-70" y="350" as="targetPoint" />
          </mxGeometry>
        </mxCell>
        <mxCell id="chc9OdD4yWV7xc_dcuEu-120" value="" style="endArrow=none;dashed=1;html=1;dashPattern=1 3;strokeWidth=2;rounded=0;entryX=0;entryY=0.5;entryDx=0;entryDy=0;" edge="1" parent="1" target="chc9OdD4yWV7xc_dcuEu-26">
          <mxGeometry width="50" height="50" relative="1" as="geometry">
            <mxPoint x="-20" y="40" as="sourcePoint" />
            <mxPoint x="-80" y="330" as="targetPoint" />
          </mxGeometry>
        </mxCell>
        <mxCell id="chc9OdD4yWV7xc_dcuEu-121" value="No" style="text;html=1;strokeColor=none;fillColor=none;align=center;verticalAlign=middle;whiteSpace=wrap;rounded=0;" vertex="1" parent="1">
          <mxGeometry x="-437.5" y="-20" width="60" height="30" as="geometry" />
        </mxCell>
        <mxCell id="chc9OdD4yWV7xc_dcuEu-122" value="" style="endArrow=none;dashed=1;html=1;dashPattern=1 3;strokeWidth=2;rounded=0;entryX=0;entryY=0.5;entryDx=0;entryDy=0;exitX=1;exitY=0.5;exitDx=0;exitDy=0;" edge="1" parent="1" source="chc9OdD4yWV7xc_dcuEu-39" target="chc9OdD4yWV7xc_dcuEu-2">
          <mxGeometry width="50" height="50" relative="1" as="geometry">
            <mxPoint x="-110" y="480" as="sourcePoint" />
            <mxPoint x="-60" y="430" as="targetPoint" />
          </mxGeometry>
        </mxCell>
        <mxCell id="chc9OdD4yWV7xc_dcuEu-123" value="" style="endArrow=none;dashed=1;html=1;dashPattern=1 3;strokeWidth=2;rounded=0;exitX=1;exitY=0.5;exitDx=0;exitDy=0;entryX=0;entryY=0.5;entryDx=0;entryDy=0;" edge="1" parent="1" source="chc9OdD4yWV7xc_dcuEu-14" target="chc9OdD4yWV7xc_dcuEu-64">
          <mxGeometry width="50" height="50" relative="1" as="geometry">
            <mxPoint x="280" y="510" as="sourcePoint" />
            <mxPoint x="330" y="460" as="targetPoint" />
          </mxGeometry>
        </mxCell>
        <mxCell id="chc9OdD4yWV7xc_dcuEu-124" value="" style="endArrow=none;dashed=1;html=1;dashPattern=1 3;strokeWidth=2;rounded=0;exitX=1;exitY=0.5;exitDx=0;exitDy=0;entryX=0;entryY=0.5;entryDx=0;entryDy=0;" edge="1" parent="1" source="chc9OdD4yWV7xc_dcuEu-101" target="chc9OdD4yWV7xc_dcuEu-98">
          <mxGeometry width="50" height="50" relative="1" as="geometry">
            <mxPoint x="-80" y="420" as="sourcePoint" />
            <mxPoint x="-30" y="370" as="targetPoint" />
          </mxGeometry>
        </mxCell>
        <mxCell id="chc9OdD4yWV7xc_dcuEu-125" value="" style="endArrow=none;dashed=1;html=1;dashPattern=1 3;strokeWidth=2;rounded=0;exitX=1;exitY=0.5;exitDx=0;exitDy=0;entryX=0;entryY=0.5;entryDx=0;entryDy=0;" edge="1" parent="1" source="chc9OdD4yWV7xc_dcuEu-85" target="chc9OdD4yWV7xc_dcuEu-87">
          <mxGeometry width="50" height="50" relative="1" as="geometry">
            <mxPoint x="250" y="700" as="sourcePoint" />
            <mxPoint x="300" y="650" as="targetPoint" />
          </mxGeometry>
        </mxCell>
        <mxCell id="chc9OdD4yWV7xc_dcuEu-126" value="" style="endArrow=none;dashed=1;html=1;dashPattern=1 3;strokeWidth=2;rounded=0;exitX=1;exitY=0.5;exitDx=0;exitDy=0;entryX=0;entryY=0.5;entryDx=0;entryDy=0;" edge="1" parent="1" source="chc9OdD4yWV7xc_dcuEu-116" target="chc9OdD4yWV7xc_dcuEu-128">
          <mxGeometry width="50" height="50" relative="1" as="geometry">
            <mxPoint x="580" y="970" as="sourcePoint" />
            <mxPoint x="590" y="820" as="targetPoint" />
          </mxGeometry>
        </mxCell>
        <mxCell id="chc9OdD4yWV7xc_dcuEu-127" style="edgeStyle=orthogonalEdgeStyle;rounded=0;orthogonalLoop=1;jettySize=auto;html=1;exitX=0.5;exitY=1;exitDx=0;exitDy=0;entryX=0.5;entryY=0;entryDx=0;entryDy=0;" edge="1" parent="1" source="chc9OdD4yWV7xc_dcuEu-128" target="chc9OdD4yWV7xc_dcuEu-130">
          <mxGeometry relative="1" as="geometry" />
        </mxCell>
        <mxCell id="chc9OdD4yWV7xc_dcuEu-128" value="acceptによって出来たfdで情報を受け取る" style="shape=process;whiteSpace=wrap;html=1;backgroundOutline=1;" vertex="1" parent="1">
          <mxGeometry x="620" y="755" width="170" height="40" as="geometry" />
        </mxCell>
        <mxCell id="chc9OdD4yWV7xc_dcuEu-129" style="edgeStyle=orthogonalEdgeStyle;rounded=0;orthogonalLoop=1;jettySize=auto;html=1;exitX=0.5;exitY=1;exitDx=0;exitDy=0;entryX=0.5;entryY=0;entryDx=0;entryDy=0;" edge="1" parent="1" source="chc9OdD4yWV7xc_dcuEu-130" target="chc9OdD4yWV7xc_dcuEu-134">
          <mxGeometry relative="1" as="geometry" />
        </mxCell>
        <mxCell id="chc9OdD4yWV7xc_dcuEu-130" value="受け取ったメッセージの1行目から&lt;br&gt;method path (あればクエリ) &lt;br&gt;HTTPのバージョン&lt;br&gt;を取得" style="rounded=0;whiteSpace=wrap;html=1;" vertex="1" parent="1">
          <mxGeometry x="607.5" y="820" width="195" height="70" as="geometry" />
        </mxCell>
        <mxCell id="chc9OdD4yWV7xc_dcuEu-131" value="message 例は&lt;br&gt;&lt;font style=&quot;font-size: 9px;&quot;&gt;POST&lt;/font&gt; &lt;font style=&quot;font-size: 9px;&quot;&gt;&lt;span style=&quot;margin: 0px; padding: 0px; border: 0px; font-family: &amp;quot;gg sans&amp;quot;, &amp;quot;Hiragino Sans&amp;quot;, &amp;quot;ヒラギノ角ゴ  ProN W3&amp;quot;, &amp;quot;Hiragino Kaku Gothic ProN&amp;quot;, メイリオ, Meiryo, Osaka, &amp;quot;MS PGothic&amp;quot;, &amp;quot;Noto Sans&amp;quot;, &amp;quot;Helvetica Neue&amp;quot;, Helvetica, Arial, sans-serif; vertical-align: baseline; outline: 0px; font-variant-ligatures: normal; orphans: 2; text-align: left; widows: 2; background-color: rgba(2, 2, 2, 0.06); text-decoration-thickness: initial;&quot;&gt;/index&lt;/span&gt;&lt;span style=&quot;margin: 0px; padding: 0px; border: 0px; font-family: &amp;quot;gg sans&amp;quot;, &amp;quot;Hiragino Sans&amp;quot;, &amp;quot;ヒラギノ角ゴ  ProN W3&amp;quot;, &amp;quot;Hiragino Kaku Gothic ProN&amp;quot;, メイリオ, Meiryo, Osaka, &amp;quot;MS PGothic&amp;quot;, &amp;quot;Noto Sans&amp;quot;, &amp;quot;Helvetica Neue&amp;quot;, Helvetica, Arial, sans-serif; vertical-align: baseline; outline: 0px; font-variant-ligatures: normal; orphans: 2; text-align: left; widows: 2; background-color: rgba(2, 2, 2, 0.06); text-decoration-thickness: initial;&quot;&gt;.html HTTP&lt;/span&gt;&lt;span style=&quot;margin: 0px; padding: 0px; border: 0px; font-family: &amp;quot;gg sans&amp;quot;, &amp;quot;Hiragino Sans&amp;quot;, &amp;quot;ヒラギノ角ゴ  ProN W3&amp;quot;, &amp;quot;Hiragino Kaku Gothic ProN&amp;quot;, メイリオ, Meiryo, Osaka, &amp;quot;MS PGothic&amp;quot;, &amp;quot;Noto Sans&amp;quot;, &amp;quot;Helvetica Neue&amp;quot;, Helvetica, Arial, sans-serif; vertical-align: baseline; outline: 0px; font-variant-ligatures: normal; orphans: 2; text-align: left; widows: 2; background-color: rgba(2, 2, 2, 0.06); text-decoration-thickness: initial;&quot;&gt;/&lt;/span&gt;&lt;span style=&quot;margin: 0px; padding: 0px; border: 0px; font-family: &amp;quot;gg sans&amp;quot;, &amp;quot;Hiragino Sans&amp;quot;, &amp;quot;ヒラギノ角ゴ  ProN W3&amp;quot;, &amp;quot;Hiragino Kaku Gothic ProN&amp;quot;, メイリオ, Meiryo, Osaka, &amp;quot;MS PGothic&amp;quot;, &amp;quot;Noto Sans&amp;quot;, &amp;quot;Helvetica Neue&amp;quot;, Helvetica, Arial, sans-serif; vertical-align: baseline; outline: 0px; font-variant-ligatures: normal; orphans: 2; text-align: left; widows: 2; background-color: rgba(2, 2, 2, 0.06); text-decoration-thickness: initial;&quot;&gt;1&lt;/span&gt;&lt;span style=&quot;margin: 0px; padding: 0px; border: 0px; font-family: &amp;quot;gg sans&amp;quot;, &amp;quot;Hiragino Sans&amp;quot;, &amp;quot;ヒラギノ角ゴ  ProN W3&amp;quot;, &amp;quot;Hiragino Kaku Gothic ProN&amp;quot;, メイリオ, Meiryo, Osaka, &amp;quot;MS PGothic&amp;quot;, &amp;quot;Noto Sans&amp;quot;, &amp;quot;Helvetica Neue&amp;quot;, Helvetica, Arial, sans-serif; vertical-align: baseline; outline: 0px; font-variant-ligatures: normal; orphans: 2; text-align: left; widows: 2; background-color: rgba(2, 2, 2, 0.06); text-decoration-thickness: initial;&quot;&gt;.1&lt;br&gt;Host&lt;/span&gt;&lt;span style=&quot;margin: 0px; padding: 0px; border: 0px; font-family: &amp;quot;gg sans&amp;quot;, &amp;quot;Hiragino Sans&amp;quot;, &amp;quot;ヒラギノ角ゴ  ProN W3&amp;quot;, &amp;quot;Hiragino Kaku Gothic ProN&amp;quot;, メイリオ, Meiryo, Osaka, &amp;quot;MS PGothic&amp;quot;, &amp;quot;Noto Sans&amp;quot;, &amp;quot;Helvetica Neue&amp;quot;, Helvetica, Arial, sans-serif; vertical-align: baseline; outline: 0px; font-variant-ligatures: normal; orphans: 2; text-align: left; widows: 2; background-color: rgba(2, 2, 2, 0.06); text-decoration-thickness: initial;&quot;&gt;: &lt;/span&gt;&lt;span style=&quot;margin: 0px; padding: 0px; border: 0px; font-family: &amp;quot;gg sans&amp;quot;, &amp;quot;Hiragino Sans&amp;quot;, &amp;quot;ヒラギノ角ゴ  ProN W3&amp;quot;, &amp;quot;Hiragino Kaku Gothic ProN&amp;quot;, メイリオ, Meiryo, Osaka, &amp;quot;MS PGothic&amp;quot;, &amp;quot;Noto Sans&amp;quot;, &amp;quot;Helvetica Neue&amp;quot;, Helvetica, Arial, sans-serif; vertical-align: baseline; outline: 0px; font-variant-ligatures: normal; orphans: 2; text-align: left; widows: 2; background-color: rgba(2, 2, 2, 0.06); text-decoration-thickness: initial;&quot;&gt;w&lt;/span&gt;&lt;span style=&quot;margin: 0px; padding: 0px; border: 0px; font-family: &amp;quot;gg sans&amp;quot;, &amp;quot;Hiragino Sans&amp;quot;, &amp;quot;ヒラギノ角ゴ  ProN W3&amp;quot;, &amp;quot;Hiragino Kaku Gothic ProN&amp;quot;, メイリオ, Meiryo, Osaka, &amp;quot;MS PGothic&amp;quot;, &amp;quot;Noto Sans&amp;quot;, &amp;quot;Helvetica Neue&amp;quot;, Helvetica, Arial, sans-serif; vertical-align: baseline; outline: 0px; font-variant-ligatures: normal; orphans: 2; text-align: left; widows: 2; background-color: rgba(2, 2, 2, 0.06); text-decoration-thickness: initial;&quot;&gt;e&lt;/span&gt;&lt;span style=&quot;margin: 0px; padding: 0px; border: 0px; font-family: &amp;quot;gg sans&amp;quot;, &amp;quot;Hiragino Sans&amp;quot;, &amp;quot;ヒラギノ角ゴ  ProN W3&amp;quot;, &amp;quot;Hiragino Kaku Gothic ProN&amp;quot;, メイリオ, Meiryo, Osaka, &amp;quot;MS PGothic&amp;quot;, &amp;quot;Noto Sans&amp;quot;, &amp;quot;Helvetica Neue&amp;quot;, Helvetica, Arial, sans-serif; vertical-align: baseline; outline: 0px; font-variant-ligatures: normal; orphans: 2; text-align: left; widows: 2; background-color: rgba(2, 2, 2, 0.06); text-decoration-thickness: initial;&quot;&gt;b&lt;/span&gt;&lt;span style=&quot;margin: 0px; padding: 0px; border: 0px; font-family: &amp;quot;gg sans&amp;quot;, &amp;quot;Hiragino Sans&amp;quot;, &amp;quot;ヒラギノ角ゴ  ProN W3&amp;quot;, &amp;quot;Hiragino Kaku Gothic ProN&amp;quot;, メイリオ, Meiryo, Osaka, &amp;quot;MS PGothic&amp;quot;, &amp;quot;Noto Sans&amp;quot;, &amp;quot;Helvetica Neue&amp;quot;, Helvetica, Arial, sans-serif; vertical-align: baseline; outline: 0px; font-variant-ligatures: normal; orphans: 2; text-align: left; widows: 2; background-color: rgba(2, 2, 2, 0.06); text-decoration-thickness: initial;&quot;&gt;s&lt;/span&gt;&lt;span style=&quot;margin: 0px; padding: 0px; border: 0px; font-family: &amp;quot;gg sans&amp;quot;, &amp;quot;Hiragino Sans&amp;quot;, &amp;quot;ヒラギノ角ゴ  ProN W3&amp;quot;, &amp;quot;Hiragino Kaku Gothic ProN&amp;quot;, メイリオ, Meiryo, Osaka, &amp;quot;MS PGothic&amp;quot;, &amp;quot;Noto Sans&amp;quot;, &amp;quot;Helvetica Neue&amp;quot;, Helvetica, Arial, sans-serif; vertical-align: baseline; outline: 0px; font-variant-ligatures: normal; orphans: 2; text-align: left; widows: 2; background-color: rgba(2, 2, 2, 0.06); text-decoration-thickness: initial;&quot;&gt;e&lt;/span&gt;&lt;span style=&quot;margin: 0px; padding: 0px; border: 0px; font-family: &amp;quot;gg sans&amp;quot;, &amp;quot;Hiragino Sans&amp;quot;, &amp;quot;ヒラギノ角ゴ  ProN W3&amp;quot;, &amp;quot;Hiragino Kaku Gothic ProN&amp;quot;, メイリオ, Meiryo, Osaka, &amp;quot;MS PGothic&amp;quot;, &amp;quot;Noto Sans&amp;quot;, &amp;quot;Helvetica Neue&amp;quot;, Helvetica, Arial, sans-serif; vertical-align: baseline; outline: 0px; font-variant-ligatures: normal; orphans: 2; text-align: left; widows: 2; background-color: rgba(2, 2, 2, 0.06); text-decoration-thickness: initial;&quot;&gt;r&lt;/span&gt;&lt;span style=&quot;margin: 0px; padding: 0px; border: 0px; font-family: &amp;quot;gg sans&amp;quot;, &amp;quot;Hiragino Sans&amp;quot;, &amp;quot;ヒラギノ角ゴ  ProN W3&amp;quot;, &amp;quot;Hiragino Kaku Gothic ProN&amp;quot;, メイリオ, Meiryo, Osaka, &amp;quot;MS PGothic&amp;quot;, &amp;quot;Noto Sans&amp;quot;, &amp;quot;Helvetica Neue&amp;quot;, Helvetica, Arial, sans-serif; vertical-align: baseline; outline: 0px; font-variant-ligatures: normal; orphans: 2; text-align: left; widows: 2; background-color: rgba(2, 2, 2, 0.06); text-decoration-thickness: initial;&quot;&gt;v&lt;/span&gt;&lt;span style=&quot;margin: 0px; padding: 0px; border: 0px; font-family: &amp;quot;gg sans&amp;quot;, &amp;quot;Hiragino Sans&amp;quot;, &amp;quot;ヒラギノ角ゴ  ProN W3&amp;quot;, &amp;quot;Hiragino Kaku Gothic ProN&amp;quot;, メイリオ, Meiryo, Osaka, &amp;quot;MS PGothic&amp;quot;, &amp;quot;Noto Sans&amp;quot;, &amp;quot;Helvetica Neue&amp;quot;, Helvetica, Arial, sans-serif; vertical-align: baseline; outline: 0px; font-variant-ligatures: normal; orphans: 2; text-align: left; widows: 2; background-color: rgba(2, 2, 2, 0.06); text-decoration-thickness: initial;&quot;&gt;1&lt;/span&gt;&lt;span style=&quot;margin: 0px; padding: 0px; border: 0px; font-family: &amp;quot;gg sans&amp;quot;, &amp;quot;Hiragino Sans&amp;quot;, &amp;quot;ヒラギノ角ゴ  ProN W3&amp;quot;, &amp;quot;Hiragino Kaku Gothic ProN&amp;quot;, メイリオ, Meiryo, Osaka, &amp;quot;MS PGothic&amp;quot;, &amp;quot;Noto Sans&amp;quot;, &amp;quot;Helvetica Neue&amp;quot;, Helvetica, Arial, sans-serif; vertical-align: baseline; outline: 0px; font-variant-ligatures: normal; orphans: 2; text-align: left; widows: 2; background-color: rgba(2, 2, 2, 0.06); text-decoration-thickness: initial;&quot;&gt;:4242&lt;br&gt;User&lt;/span&gt;&lt;span style=&quot;margin: 0px; padding: 0px; border: 0px; font-family: &amp;quot;gg sans&amp;quot;, &amp;quot;Hiragino Sans&amp;quot;, &amp;quot;ヒラギノ角ゴ  ProN W3&amp;quot;, &amp;quot;Hiragino Kaku Gothic ProN&amp;quot;, メイリオ, Meiryo, Osaka, &amp;quot;MS PGothic&amp;quot;, &amp;quot;Noto Sans&amp;quot;, &amp;quot;Helvetica Neue&amp;quot;, Helvetica, Arial, sans-serif; vertical-align: baseline; outline: 0px; font-variant-ligatures: normal; orphans: 2; text-align: left; widows: 2; background-color: rgba(2, 2, 2, 0.06); text-decoration-thickness: initial;&quot;&gt;-Agent&lt;/span&gt;&lt;span style=&quot;margin: 0px; padding: 0px; border: 0px; font-family: &amp;quot;gg sans&amp;quot;, &amp;quot;Hiragino Sans&amp;quot;, &amp;quot;ヒラギノ角ゴ  ProN W3&amp;quot;, &amp;quot;Hiragino Kaku Gothic ProN&amp;quot;, メイリオ, Meiryo, Osaka, &amp;quot;MS PGothic&amp;quot;, &amp;quot;Noto Sans&amp;quot;, &amp;quot;Helvetica Neue&amp;quot;, Helvetica, Arial, sans-serif; vertical-align: baseline; outline: 0px; font-variant-ligatures: normal; orphans: 2; text-align: left; widows: 2; background-color: rgba(2, 2, 2, 0.06); text-decoration-thickness: initial;&quot;&gt;: curl&lt;/span&gt;&lt;span style=&quot;margin: 0px; padding: 0px; border: 0px; font-family: &amp;quot;gg sans&amp;quot;, &amp;quot;Hiragino Sans&amp;quot;, &amp;quot;ヒラギノ角ゴ  ProN W3&amp;quot;, &amp;quot;Hiragino Kaku Gothic ProN&amp;quot;, メイリオ, Meiryo, Osaka, &amp;quot;MS PGothic&amp;quot;, &amp;quot;Noto Sans&amp;quot;, &amp;quot;Helvetica Neue&amp;quot;, Helvetica, Arial, sans-serif; vertical-align: baseline; outline: 0px; font-variant-ligatures: normal; orphans: 2; text-align: left; widows: 2; background-color: rgba(2, 2, 2, 0.06); text-decoration-thickness: initial;&quot;&gt;/&lt;/span&gt;&lt;span style=&quot;margin: 0px; padding: 0px; border: 0px; font-family: &amp;quot;gg sans&amp;quot;, &amp;quot;Hiragino Sans&amp;quot;, &amp;quot;ヒラギノ角ゴ  ProN W3&amp;quot;, &amp;quot;Hiragino Kaku Gothic ProN&amp;quot;, メイリオ, Meiryo, Osaka, &amp;quot;MS PGothic&amp;quot;, &amp;quot;Noto Sans&amp;quot;, &amp;quot;Helvetica Neue&amp;quot;, Helvetica, Arial, sans-serif; vertical-align: baseline; outline: 0px; font-variant-ligatures: normal; orphans: 2; text-align: left; widows: 2; background-color: rgba(2, 2, 2, 0.06); text-decoration-thickness: initial;&quot;&gt;7&lt;/span&gt;&lt;span style=&quot;margin: 0px; padding: 0px; border: 0px; font-family: &amp;quot;gg sans&amp;quot;, &amp;quot;Hiragino Sans&amp;quot;, &amp;quot;ヒラギノ角ゴ  ProN W3&amp;quot;, &amp;quot;Hiragino Kaku Gothic ProN&amp;quot;, メイリオ, Meiryo, Osaka, &amp;quot;MS PGothic&amp;quot;, &amp;quot;Noto Sans&amp;quot;, &amp;quot;Helvetica Neue&amp;quot;, Helvetica, Arial, sans-serif; vertical-align: baseline; outline: 0px; font-variant-ligatures: normal; orphans: 2; text-align: left; widows: 2; background-color: rgba(2, 2, 2, 0.06); text-decoration-thickness: initial;&quot;&gt;.&lt;/span&gt;&lt;span style=&quot;margin: 0px; padding: 0px; border: 0px; font-family: &amp;quot;gg sans&amp;quot;, &amp;quot;Hiragino Sans&amp;quot;, &amp;quot;ヒラギノ角ゴ  ProN W3&amp;quot;, &amp;quot;Hiragino Kaku Gothic ProN&amp;quot;, メイリオ, Meiryo, Osaka, &amp;quot;MS PGothic&amp;quot;, &amp;quot;Noto Sans&amp;quot;, &amp;quot;Helvetica Neue&amp;quot;, Helvetica, Arial, sans-serif; vertical-align: baseline; outline: 0px; font-variant-ligatures: normal; orphans: 2; text-align: left; widows: 2; background-color: rgba(2, 2, 2, 0.06); text-decoration-thickness: initial;&quot;&gt;6&lt;/span&gt;&lt;span style=&quot;margin: 0px; padding: 0px; border: 0px; font-family: &amp;quot;gg sans&amp;quot;, &amp;quot;Hiragino Sans&amp;quot;, &amp;quot;ヒラギノ角ゴ  ProN W3&amp;quot;, &amp;quot;Hiragino Kaku Gothic ProN&amp;quot;, メイリオ, Meiryo, Osaka, &amp;quot;MS PGothic&amp;quot;, &amp;quot;Noto Sans&amp;quot;, &amp;quot;Helvetica Neue&amp;quot;, Helvetica, Arial, sans-serif; vertical-align: baseline; outline: 0px; font-variant-ligatures: normal; orphans: 2; text-align: left; widows: 2; background-color: rgba(2, 2, 2, 0.06); text-decoration-thickness: initial;&quot;&gt;4&lt;/span&gt;&lt;span style=&quot;margin: 0px; padding: 0px; border: 0px; font-family: &amp;quot;gg sans&amp;quot;, &amp;quot;Hiragino Sans&amp;quot;, &amp;quot;ヒラギノ角ゴ  ProN W3&amp;quot;, &amp;quot;Hiragino Kaku Gothic ProN&amp;quot;, メイリオ, Meiryo, Osaka, &amp;quot;MS PGothic&amp;quot;, &amp;quot;Noto Sans&amp;quot;, &amp;quot;Helvetica Neue&amp;quot;, Helvetica, Arial, sans-serif; vertical-align: baseline; outline: 0px; font-variant-ligatures: normal; orphans: 2; text-align: left; widows: 2; background-color: rgba(2, 2, 2, 0.06); text-decoration-thickness: initial;&quot;&gt;.1&lt;br&gt;Accept&lt;/span&gt;&lt;span style=&quot;margin: 0px; padding: 0px; border: 0px; font-family: &amp;quot;gg sans&amp;quot;, &amp;quot;Hiragino Sans&amp;quot;, &amp;quot;ヒラギノ角ゴ  ProN W3&amp;quot;, &amp;quot;Hiragino Kaku Gothic ProN&amp;quot;, メイリオ, Meiryo, Osaka, &amp;quot;MS PGothic&amp;quot;, &amp;quot;Noto Sans&amp;quot;, &amp;quot;Helvetica Neue&amp;quot;, Helvetica, Arial, sans-serif; vertical-align: baseline; outline: 0px; font-variant-ligatures: normal; orphans: 2; text-align: left; widows: 2; background-color: rgba(2, 2, 2, 0.06); text-decoration-thickness: initial;&quot;&gt;: &lt;/span&gt;&lt;span style=&quot;margin: 0px; padding: 0px; border: 0px; font-style: italic; font-family: &amp;quot;gg sans&amp;quot;, &amp;quot;Hiragino Sans&amp;quot;, &amp;quot;ヒラギノ角ゴ  ProN W3&amp;quot;, &amp;quot;Hiragino Kaku Gothic ProN&amp;quot;, メイリオ, Meiryo, Osaka, &amp;quot;MS PGothic&amp;quot;, &amp;quot;Noto Sans&amp;quot;, &amp;quot;Helvetica Neue&amp;quot;, Helvetica, Arial, sans-serif; vertical-align: baseline; font-variant-ligatures: normal; orphans: 2; text-align: left; widows: 2; background-color: rgba(2, 2, 2, 0.06); text-decoration-thickness: initial;&quot;&gt;&lt;span style=&quot;margin: 0px; padding: 0px; border: 0px; font-style: inherit; font-family: inherit; vertical-align: baseline; outline: 0px;&quot;&gt;/&lt;/span&gt;&lt;/span&gt;&lt;span style=&quot;margin: 0px; padding: 0px; border: 0px; font-family: &amp;quot;gg sans&amp;quot;, &amp;quot;Hiragino Sans&amp;quot;, &amp;quot;ヒラギノ角ゴ  ProN W3&amp;quot;, &amp;quot;Hiragino Kaku Gothic ProN&amp;quot;, メイリオ, Meiryo, Osaka, &amp;quot;MS PGothic&amp;quot;, &amp;quot;Noto Sans&amp;quot;, &amp;quot;Helvetica Neue&amp;quot;, Helvetica, Arial, sans-serif; vertical-align: baseline; outline: 0px; font-variant-ligatures: normal; orphans: 2; text-align: left; widows: 2; background-color: rgba(2, 2, 2, 0.06); text-decoration-thickness: initial;&quot;&gt;&lt;br&gt;Content&lt;/span&gt;&lt;span style=&quot;margin: 0px; padding: 0px; border: 0px; font-family: &amp;quot;gg sans&amp;quot;, &amp;quot;Hiragino Sans&amp;quot;, &amp;quot;ヒラギノ角ゴ  ProN W3&amp;quot;, &amp;quot;Hiragino Kaku Gothic ProN&amp;quot;, メイリオ, Meiryo, Osaka, &amp;quot;MS PGothic&amp;quot;, &amp;quot;Noto Sans&amp;quot;, &amp;quot;Helvetica Neue&amp;quot;, Helvetica, Arial, sans-serif; vertical-align: baseline; outline: 0px; font-variant-ligatures: normal; orphans: 2; text-align: left; widows: 2; background-color: rgba(2, 2, 2, 0.06); text-decoration-thickness: initial;&quot;&gt;-Length&lt;/span&gt;&lt;span style=&quot;margin: 0px; padding: 0px; border: 0px; font-family: &amp;quot;gg sans&amp;quot;, &amp;quot;Hiragino Sans&amp;quot;, &amp;quot;ヒラギノ角ゴ  ProN W3&amp;quot;, &amp;quot;Hiragino Kaku Gothic ProN&amp;quot;, メイリオ, Meiryo, Osaka, &amp;quot;MS PGothic&amp;quot;, &amp;quot;Noto Sans&amp;quot;, &amp;quot;Helvetica Neue&amp;quot;, Helvetica, Arial, sans-serif; vertical-align: baseline; outline: 0px; font-variant-ligatures: normal; orphans: 2; text-align: left; widows: 2; background-color: rgba(2, 2, 2, 0.06); text-decoration-thickness: initial;&quot;&gt;: 1314&lt;br&gt;Content&lt;/span&gt;&lt;span style=&quot;margin: 0px; padding: 0px; border: 0px; font-family: &amp;quot;gg sans&amp;quot;, &amp;quot;Hiragino Sans&amp;quot;, &amp;quot;ヒラギノ角ゴ  ProN W3&amp;quot;, &amp;quot;Hiragino Kaku Gothic ProN&amp;quot;, メイリオ, Meiryo, Osaka, &amp;quot;MS PGothic&amp;quot;, &amp;quot;Noto Sans&amp;quot;, &amp;quot;Helvetica Neue&amp;quot;, Helvetica, Arial, sans-serif; vertical-align: baseline; outline: 0px; font-variant-ligatures: normal; orphans: 2; text-align: left; widows: 2; background-color: rgba(2, 2, 2, 0.06); text-decoration-thickness: initial;&quot;&gt;-Type&lt;/span&gt;&lt;span style=&quot;margin: 0px; padding: 0px; border: 0px; font-family: &amp;quot;gg sans&amp;quot;, &amp;quot;Hiragino Sans&amp;quot;, &amp;quot;ヒラギノ角ゴ  ProN W3&amp;quot;, &amp;quot;Hiragino Kaku Gothic ProN&amp;quot;, メイリオ, Meiryo, Osaka, &amp;quot;MS PGothic&amp;quot;, &amp;quot;Noto Sans&amp;quot;, &amp;quot;Helvetica Neue&amp;quot;, Helvetica, Arial, sans-serif; vertical-align: baseline; outline: 0px; font-variant-ligatures: normal; orphans: 2; text-align: left; widows: 2; background-color: rgba(2, 2, 2, 0.06); text-decoration-thickness: initial;&quot;&gt;: application&lt;/span&gt;&lt;span style=&quot;margin: 0px; padding: 0px; border: 0px; font-family: &amp;quot;gg sans&amp;quot;, &amp;quot;Hiragino Sans&amp;quot;, &amp;quot;ヒラギノ角ゴ  ProN W3&amp;quot;, &amp;quot;Hiragino Kaku Gothic ProN&amp;quot;, メイリオ, Meiryo, Osaka, &amp;quot;MS PGothic&amp;quot;, &amp;quot;Noto Sans&amp;quot;, &amp;quot;Helvetica Neue&amp;quot;, Helvetica, Arial, sans-serif; vertical-align: baseline; outline: 0px; font-variant-ligatures: normal; orphans: 2; text-align: left; widows: 2; background-color: rgba(2, 2, 2, 0.06); text-decoration-thickness: initial;&quot;&gt;/x&lt;/span&gt;&lt;span style=&quot;margin: 0px; padding: 0px; border: 0px; font-family: &amp;quot;gg sans&amp;quot;, &amp;quot;Hiragino Sans&amp;quot;, &amp;quot;ヒラギノ角ゴ  ProN W3&amp;quot;, &amp;quot;Hiragino Kaku Gothic ProN&amp;quot;, メイリオ, Meiryo, Osaka, &amp;quot;MS PGothic&amp;quot;, &amp;quot;Noto Sans&amp;quot;, &amp;quot;Helvetica Neue&amp;quot;, Helvetica, Arial, sans-serif; vertical-align: baseline; outline: 0px; font-variant-ligatures: normal; orphans: 2; text-align: left; widows: 2; background-color: rgba(2, 2, 2, 0.06); text-decoration-thickness: initial;&quot;&gt;-www&lt;/span&gt;&lt;span style=&quot;margin: 0px; padding: 0px; border: 0px; font-family: &amp;quot;gg sans&amp;quot;, &amp;quot;Hiragino Sans&amp;quot;, &amp;quot;ヒラギノ角ゴ  ProN W3&amp;quot;, &amp;quot;Hiragino Kaku Gothic ProN&amp;quot;, メイリオ, Meiryo, Osaka, &amp;quot;MS PGothic&amp;quot;, &amp;quot;Noto Sans&amp;quot;, &amp;quot;Helvetica Neue&amp;quot;, Helvetica, Arial, sans-serif; vertical-align: baseline; outline: 0px; font-variant-ligatures: normal; orphans: 2; text-align: left; widows: 2; background-color: rgba(2, 2, 2, 0.06); text-decoration-thickness: initial;&quot;&gt;-form&lt;/span&gt;&lt;span style=&quot;margin: 0px; padding: 0px; border: 0px; font-family: &amp;quot;gg sans&amp;quot;, &amp;quot;Hiragino Sans&amp;quot;, &amp;quot;ヒラギノ角ゴ  ProN W3&amp;quot;, &amp;quot;Hiragino Kaku Gothic ProN&amp;quot;, メイリオ, Meiryo, Osaka, &amp;quot;MS PGothic&amp;quot;, &amp;quot;Noto Sans&amp;quot;, &amp;quot;Helvetica Neue&amp;quot;, Helvetica, Arial, sans-serif; vertical-align: baseline; outline: 0px; font-variant-ligatures: normal; orphans: 2; text-align: left; widows: 2; background-color: rgba(2, 2, 2, 0.06); text-decoration-thickness: initial;&quot;&gt;-urlencoded&lt;br&gt;Expect&lt;/span&gt;&lt;span style=&quot;margin: 0px; padding: 0px; border: 0px; font-family: &amp;quot;gg sans&amp;quot;, &amp;quot;Hiragino Sans&amp;quot;, &amp;quot;ヒラギノ角ゴ  ProN W3&amp;quot;, &amp;quot;Hiragino Kaku Gothic ProN&amp;quot;, メイリオ, Meiryo, Osaka, &amp;quot;MS PGothic&amp;quot;, &amp;quot;Noto Sans&amp;quot;, &amp;quot;Helvetica Neue&amp;quot;, Helvetica, Arial, sans-serif; vertical-align: baseline; outline: 0px; font-variant-ligatures: normal; orphans: 2; text-align: left; widows: 2; background-color: rgba(2, 2, 2, 0.06); text-decoration-thickness: initial;&quot;&gt;: 100&lt;/span&gt;&lt;span style=&quot;margin: 0px; padding: 0px; border: 0px; font-family: &amp;quot;gg sans&amp;quot;, &amp;quot;Hiragino Sans&amp;quot;, &amp;quot;ヒラギノ角ゴ  ProN W3&amp;quot;, &amp;quot;Hiragino Kaku Gothic ProN&amp;quot;, メイリオ, Meiryo, Osaka, &amp;quot;MS PGothic&amp;quot;, &amp;quot;Noto Sans&amp;quot;, &amp;quot;Helvetica Neue&amp;quot;, Helvetica, Arial, sans-serif; vertical-align: baseline; outline: 0px; font-variant-ligatures: normal; orphans: 2; text-align: left; widows: 2; background-color: rgba(2, 2, 2, 0.06); text-decoration-thickness: initial;&quot;&gt;-continue&lt;/span&gt;&lt;span style=&quot;margin: 0px; padding: 0px; border: 0px; font-family: &amp;quot;gg sans&amp;quot;, &amp;quot;Hiragino Sans&amp;quot;, &amp;quot;ヒラギノ角ゴ  ProN W3&amp;quot;, &amp;quot;Hiragino Kaku Gothic ProN&amp;quot;, メイリオ, Meiryo, Osaka, &amp;quot;MS PGothic&amp;quot;, &amp;quot;Noto Sans&amp;quot;, &amp;quot;Helvetica Neue&amp;quot;, Helvetica, Arial, sans-serif; vertical-align: baseline; outline: 0px; font-variant-ligatures: normal; orphans: 2; text-align: left; widows: 2; background-color: rgba(2, 2, 2, 0.06); text-decoration-thickness: initial;&quot;&gt;&lt;br&gt;&lt;br&gt;Hello&lt;/span&gt;&lt;span style=&quot;margin: 0px; padding: 0px; border: 0px; font-family: &amp;quot;gg sans&amp;quot;, &amp;quot;Hiragino Sans&amp;quot;, &amp;quot;ヒラギノ角ゴ  ProN W3&amp;quot;, &amp;quot;Hiragino Kaku Gothic ProN&amp;quot;, メイリオ, Meiryo, Osaka, &amp;quot;MS PGothic&amp;quot;, &amp;quot;Noto Sans&amp;quot;, &amp;quot;Helvetica Neue&amp;quot;, Helvetica, Arial, sans-serif; vertical-align: baseline; outline: 0px; font-variant-ligatures: normal; orphans: 2; text-align: left; widows: 2; background-color: rgba(2, 2, 2, 0.06); text-decoration-thickness: initial;&quot;&gt;, world&lt;/span&gt;&lt;span style=&quot;margin: 0px; padding: 0px; border: 0px; font-family: &amp;quot;gg sans&amp;quot;, &amp;quot;Hiragino Sans&amp;quot;, &amp;quot;ヒラギノ角ゴ  ProN W3&amp;quot;, &amp;quot;Hiragino Kaku Gothic ProN&amp;quot;, メイリオ, Meiryo, Osaka, &amp;quot;MS PGothic&amp;quot;, &amp;quot;Noto Sans&amp;quot;, &amp;quot;Helvetica Neue&amp;quot;, Helvetica, Arial, sans-serif; vertical-align: baseline; outline: 0px; font-variant-ligatures: normal; orphans: 2; text-align: left; widows: 2; background-color: rgba(2, 2, 2, 0.06); text-decoration-thickness: initial;&quot;&gt;! Hello&lt;/span&gt;&lt;span style=&quot;margin: 0px; padding: 0px; border: 0px; font-family: &amp;quot;gg sans&amp;quot;, &amp;quot;Hiragino Sans&amp;quot;, &amp;quot;ヒラギノ角ゴ  ProN W3&amp;quot;, &amp;quot;Hiragino Kaku Gothic ProN&amp;quot;, メイリオ, Meiryo, Osaka, &amp;quot;MS PGothic&amp;quot;, &amp;quot;Noto Sans&amp;quot;, &amp;quot;Helvetica Neue&amp;quot;, Helvetica, Arial, sans-serif; vertical-align: baseline; outline: 0px; font-variant-ligatures: normal; orphans: 2; text-align: left; widows: 2; background-color: rgba(2, 2, 2, 0.06); text-decoration-thickness: initial;&quot;&gt;, world&lt;/span&gt;&lt;span style=&quot;margin: 0px; padding: 0px; border: 0px; font-family: &amp;quot;gg sans&amp;quot;, &amp;quot;Hiragino Sans&amp;quot;, &amp;quot;ヒラギノ角ゴ  ProN W3&amp;quot;, &amp;quot;Hiragino Kaku Gothic ProN&amp;quot;, メイリオ, Meiryo, Osaka, &amp;quot;MS PGothic&amp;quot;, &amp;quot;Noto Sans&amp;quot;, &amp;quot;Helvetica Neue&amp;quot;, Helvetica, Arial, sans-serif; vertical-align: baseline; outline: 0px; font-variant-ligatures: normal; orphans: 2; text-align: left; widows: 2; background-color: rgba(2, 2, 2, 0.06); text-decoration-thickness: initial;&quot;&gt;! He&lt;/span&gt;&lt;/font&gt;" style="whiteSpace=wrap;html=1;aspect=fixed;" vertex="1" parent="1">
          <mxGeometry x="540" y="427.5" width="192.5" height="192.5" as="geometry" />
        </mxCell>
        <mxCell id="chc9OdD4yWV7xc_dcuEu-132" value="" style="shape=flexArrow;endArrow=classic;html=1;rounded=0;exitX=0;exitY=0;exitDx=0;exitDy=0;" edge="1" parent="1" source="chc9OdD4yWV7xc_dcuEu-130">
          <mxGeometry width="50" height="50" relative="1" as="geometry">
            <mxPoint x="540" y="810" as="sourcePoint" />
            <mxPoint x="610" y="630" as="targetPoint" />
          </mxGeometry>
        </mxCell>
        <mxCell id="chc9OdD4yWV7xc_dcuEu-133" style="edgeStyle=orthogonalEdgeStyle;rounded=0;orthogonalLoop=1;jettySize=auto;html=1;exitX=0.5;exitY=1;exitDx=0;exitDy=0;" edge="1" parent="1" source="chc9OdD4yWV7xc_dcuEu-134" target="chc9OdD4yWV7xc_dcuEu-140">
          <mxGeometry relative="1" as="geometry" />
        </mxCell>
        <mxCell id="chc9OdD4yWV7xc_dcuEu-134" value="2行目から&lt;br&gt;servername &amp;nbsp;port番号&lt;br&gt;取得" style="rounded=0;whiteSpace=wrap;html=1;" vertex="1" parent="1">
          <mxGeometry x="638.75" y="912.5" width="131.25" height="57.5" as="geometry" />
        </mxCell>
        <mxCell id="chc9OdD4yWV7xc_dcuEu-135" value="" style="shape=curlyBracket;whiteSpace=wrap;html=1;rounded=1;flipH=1;labelPosition=right;verticalLabelPosition=middle;align=left;verticalAlign=middle;" vertex="1" parent="1">
          <mxGeometry x="810" y="805" width="20" height="175" as="geometry" />
        </mxCell>
        <mxCell id="chc9OdD4yWV7xc_dcuEu-136" value="ここは必ずアクセスを受けたときに要求される内容になっている" style="text;html=1;strokeColor=none;fillColor=none;align=center;verticalAlign=middle;whiteSpace=wrap;rounded=0;" vertex="1" parent="1">
          <mxGeometry x="840" y="840" width="210" height="30" as="geometry" />
        </mxCell>
        <mxCell id="chc9OdD4yWV7xc_dcuEu-137" value="リクエスタはパソコンからのものなので、多分ミスしない？（要検討" style="text;html=1;strokeColor=none;fillColor=none;align=center;verticalAlign=middle;whiteSpace=wrap;rounded=0;" vertex="1" parent="1">
          <mxGeometry x="830" y="877.5" width="240" height="30" as="geometry" />
        </mxCell>
        <mxCell id="chc9OdD4yWV7xc_dcuEu-138" value="" style="line;strokeWidth=2;html=1;" vertex="1" parent="1">
          <mxGeometry x="590" y="980" width="250" height="10" as="geometry" />
        </mxCell>
        <mxCell id="chc9OdD4yWV7xc_dcuEu-139" style="edgeStyle=orthogonalEdgeStyle;rounded=0;orthogonalLoop=1;jettySize=auto;html=1;exitX=0.5;exitY=1;exitDx=0;exitDy=0;entryX=0.5;entryY=0;entryDx=0;entryDy=0;" edge="1" parent="1" source="chc9OdD4yWV7xc_dcuEu-140" target="chc9OdD4yWV7xc_dcuEu-143">
          <mxGeometry relative="1" as="geometry" />
        </mxCell>
        <mxCell id="chc9OdD4yWV7xc_dcuEu-140" value="アクセプトしたメッセージ内容は&lt;br&gt;key value&lt;br&gt;で渡されるため該当内容を格納していく" style="rounded=0;whiteSpace=wrap;html=1;" vertex="1" parent="1">
          <mxGeometry x="582.8199999999999" y="1020" width="243.12" height="60" as="geometry" />
        </mxCell>
        <mxCell id="chc9OdD4yWV7xc_dcuEu-141" style="edgeStyle=orthogonalEdgeStyle;rounded=0;orthogonalLoop=1;jettySize=auto;html=1;exitX=0;exitY=0.5;exitDx=0;exitDy=0;entryX=0.25;entryY=0;entryDx=0;entryDy=0;" edge="1" parent="1" source="chc9OdD4yWV7xc_dcuEu-143" target="chc9OdD4yWV7xc_dcuEu-140">
          <mxGeometry relative="1" as="geometry">
            <Array as="points">
              <mxPoint x="566" y="1115" />
              <mxPoint x="566" y="1000" />
              <mxPoint x="644" y="1000" />
            </Array>
          </mxGeometry>
        </mxCell>
        <mxCell id="chc9OdD4yWV7xc_dcuEu-142" style="edgeStyle=orthogonalEdgeStyle;rounded=0;orthogonalLoop=1;jettySize=auto;html=1;exitX=0.5;exitY=1;exitDx=0;exitDy=0;" edge="1" parent="1" source="chc9OdD4yWV7xc_dcuEu-143" target="chc9OdD4yWV7xc_dcuEu-149">
          <mxGeometry relative="1" as="geometry" />
        </mxCell>
        <mxCell id="chc9OdD4yWV7xc_dcuEu-143" value="メッセージがこれ以上ない" style="rhombus;whiteSpace=wrap;html=1;" vertex="1" parent="1">
          <mxGeometry x="586" y="1100" width="238" height="30" as="geometry" />
        </mxCell>
        <mxCell id="chc9OdD4yWV7xc_dcuEu-144" value="No" style="text;html=1;strokeColor=none;fillColor=none;align=center;verticalAlign=middle;whiteSpace=wrap;rounded=0;" vertex="1" parent="1">
          <mxGeometry x="547.5" y="1080" width="60" height="30" as="geometry" />
        </mxCell>
        <mxCell id="chc9OdD4yWV7xc_dcuEu-145" value="Yes" style="text;html=1;strokeColor=none;fillColor=none;align=center;verticalAlign=middle;whiteSpace=wrap;rounded=0;" vertex="1" parent="1">
          <mxGeometry x="730" y="1130" width="60" height="30" as="geometry" />
        </mxCell>
        <mxCell id="chc9OdD4yWV7xc_dcuEu-146" value="" style="endArrow=none;dashed=1;html=1;rounded=0;" edge="1" parent="1" target="chc9OdD4yWV7xc_dcuEu-147">
          <mxGeometry width="50" height="50" relative="1" as="geometry">
            <mxPoint x="830" y="1050" as="sourcePoint" />
            <mxPoint x="880" y="1050" as="targetPoint" />
          </mxGeometry>
        </mxCell>
        <mxCell id="chc9OdD4yWV7xc_dcuEu-147" value="ヘッダーによっては&lt;br&gt;繰り返し送信することが決まっているものや特定の送信方法があるようなものがあり、調べる必要あり" style="rounded=1;whiteSpace=wrap;html=1;" vertex="1" parent="1">
          <mxGeometry x="840" y="1010" width="230" height="80" as="geometry" />
        </mxCell>
        <mxCell id="chc9OdD4yWV7xc_dcuEu-148" value="Contentlengthとchunkedくらい知ってるの" style="text;html=1;strokeColor=none;fillColor=none;align=center;verticalAlign=middle;whiteSpace=wrap;rounded=0;" vertex="1" parent="1">
          <mxGeometry x="870" y="975" width="150" height="30" as="geometry" />
        </mxCell>
        <mxCell id="chc9OdD4yWV7xc_dcuEu-149" value="終了" style="rounded=1;whiteSpace=wrap;html=1;fontSize=12;glass=0;strokeWidth=1;shadow=0;fillColor=#f8cecc;strokeColor=#b85450;" vertex="1" parent="1">
          <mxGeometry x="644.38" y="1160" width="120" height="30" as="geometry" />
        </mxCell>
        <mxCell id="chc9OdD4yWV7xc_dcuEu-150" style="edgeStyle=orthogonalEdgeStyle;rounded=0;orthogonalLoop=1;jettySize=auto;html=1;exitX=0;exitY=0.5;exitDx=0;exitDy=0;entryX=0.329;entryY=1;entryDx=0;entryDy=0;entryPerimeter=0;" edge="1" parent="1" source="chc9OdD4yWV7xc_dcuEu-151" target="chc9OdD4yWV7xc_dcuEu-91">
          <mxGeometry relative="1" as="geometry" />
        </mxCell>
        <mxCell id="chc9OdD4yWV7xc_dcuEu-151" value="" style="shape=process;whiteSpace=wrap;html=1;backgroundOutline=1;" vertex="1" parent="1">
          <mxGeometry x="343.75" y="1077.5" width="216.25" height="85" as="geometry" />
        </mxCell>
        <mxCell id="chc9OdD4yWV7xc_dcuEu-152" value="受け取ったメッセージに&lt;br style=&quot;border-color: var(--border-color);&quot;&gt;合わせてレスポンスを作成する" style="rhombus;whiteSpace=wrap;html=1;" vertex="1" parent="1">
          <mxGeometry x="345" y="1080" width="210" height="80" as="geometry" />
        </mxCell>
        <mxCell id="chc9OdD4yWV7xc_dcuEu-153" value="" style="endArrow=none;dashed=1;html=1;dashPattern=1 3;strokeWidth=2;rounded=0;entryX=0;entryY=0.25;entryDx=0;entryDy=0;exitX=1;exitY=0.5;exitDx=0;exitDy=0;" edge="1" parent="1" source="chc9OdD4yWV7xc_dcuEu-155" target="chc9OdD4yWV7xc_dcuEu-151">
          <mxGeometry width="50" height="50" relative="1" as="geometry">
            <mxPoint x="200" y="1000" as="sourcePoint" />
            <mxPoint x="160" y="970" as="targetPoint" />
          </mxGeometry>
        </mxCell>
        <mxCell id="chc9OdD4yWV7xc_dcuEu-154" style="edgeStyle=orthogonalEdgeStyle;rounded=0;orthogonalLoop=1;jettySize=auto;html=1;exitX=0.5;exitY=1;exitDx=0;exitDy=0;entryX=0.5;entryY=0;entryDx=0;entryDy=0;" edge="1" parent="1" source="chc9OdD4yWV7xc_dcuEu-155" target="chc9OdD4yWV7xc_dcuEu-157">
          <mxGeometry relative="1" as="geometry" />
        </mxCell>
        <mxCell id="chc9OdD4yWV7xc_dcuEu-155" value="受け取った情報に合わせて&lt;br&gt;レスポンスを作る" style="shape=process;whiteSpace=wrap;html=1;backgroundOutline=1;" vertex="1" parent="1">
          <mxGeometry y="920" width="207.5" height="40" as="geometry" />
        </mxCell>
        <mxCell id="chc9OdD4yWV7xc_dcuEu-156" style="edgeStyle=orthogonalEdgeStyle;rounded=0;orthogonalLoop=1;jettySize=auto;html=1;exitX=0.5;exitY=1;exitDx=0;exitDy=0;entryX=0.5;entryY=0;entryDx=0;entryDy=0;" edge="1" parent="1" source="chc9OdD4yWV7xc_dcuEu-157" target="chc9OdD4yWV7xc_dcuEu-166">
          <mxGeometry relative="1" as="geometry" />
        </mxCell>
        <mxCell id="chc9OdD4yWV7xc_dcuEu-157" value="confファイルに記載のあるロケーション情報&lt;br&gt;&lt;br&gt;GETなどのmethod&lt;br&gt;&lt;br&gt;送られたメッセージ内の要求されたパス&lt;br&gt;&lt;br&gt;とうとうアクセスメッセージを保存" style="rounded=0;whiteSpace=wrap;html=1;" vertex="1" parent="1">
          <mxGeometry x="-11.870000000000001" y="990" width="231.25" height="140" as="geometry" />
        </mxCell>
        <mxCell id="chc9OdD4yWV7xc_dcuEu-158" value="" style="endArrow=none;dashed=1;html=1;dashPattern=1 3;strokeWidth=2;rounded=0;fillColor=#f8cecc;strokeColor=#b85450;" edge="1" parent="1">
          <mxGeometry width="50" height="50" relative="1" as="geometry">
            <mxPoint x="-10" y="910" as="sourcePoint" />
            <mxPoint x="210" y="910" as="targetPoint" />
          </mxGeometry>
        </mxCell>
        <mxCell id="chc9OdD4yWV7xc_dcuEu-159" value="" style="endArrow=none;dashed=1;html=1;dashPattern=1 3;strokeWidth=2;rounded=0;fillColor=#f8cecc;strokeColor=#b85450;" edge="1" parent="1">
          <mxGeometry width="50" height="50" relative="1" as="geometry">
            <mxPoint x="-10" y="910" as="sourcePoint" />
            <mxPoint x="-10" y="-20" as="targetPoint" />
          </mxGeometry>
        </mxCell>
        <mxCell id="chc9OdD4yWV7xc_dcuEu-160" value="" style="endArrow=none;dashed=1;html=1;dashPattern=1 3;strokeWidth=2;rounded=0;fillColor=#f8cecc;strokeColor=#b85450;" edge="1" parent="1">
          <mxGeometry width="50" height="50" relative="1" as="geometry">
            <mxPoint x="210" y="910" as="sourcePoint" />
            <mxPoint x="220" y="-20" as="targetPoint" />
          </mxGeometry>
        </mxCell>
        <mxCell id="chc9OdD4yWV7xc_dcuEu-161" value="" style="endArrow=none;dashed=1;html=1;dashPattern=1 3;strokeWidth=2;rounded=0;fillColor=#f8cecc;strokeColor=#b85450;" edge="1" parent="1">
          <mxGeometry width="50" height="50" relative="1" as="geometry">
            <mxPoint x="-10" y="-20" as="sourcePoint" />
            <mxPoint x="220" y="-20" as="targetPoint" />
          </mxGeometry>
        </mxCell>
        <mxCell id="chc9OdD4yWV7xc_dcuEu-162" style="edgeStyle=orthogonalEdgeStyle;rounded=0;orthogonalLoop=1;jettySize=auto;html=1;exitX=0;exitY=0.5;exitDx=0;exitDy=0;entryX=1;entryY=0.5;entryDx=0;entryDy=0;" edge="1" parent="1" source="chc9OdD4yWV7xc_dcuEu-166" target="chc9OdD4yWV7xc_dcuEu-167">
          <mxGeometry relative="1" as="geometry" />
        </mxCell>
        <mxCell id="chc9OdD4yWV7xc_dcuEu-163" style="edgeStyle=orthogonalEdgeStyle;rounded=0;orthogonalLoop=1;jettySize=auto;html=1;exitX=0.5;exitY=1;exitDx=0;exitDy=0;entryX=0.5;entryY=0;entryDx=0;entryDy=0;" edge="1" parent="1" source="chc9OdD4yWV7xc_dcuEu-166" target="chc9OdD4yWV7xc_dcuEu-174">
          <mxGeometry relative="1" as="geometry">
            <mxPoint x="-190" y="1300" as="targetPoint" />
          </mxGeometry>
        </mxCell>
        <mxCell id="chc9OdD4yWV7xc_dcuEu-164" style="edgeStyle=orthogonalEdgeStyle;rounded=0;orthogonalLoop=1;jettySize=auto;html=1;exitX=0.5;exitY=1;exitDx=0;exitDy=0;entryX=0.5;entryY=0;entryDx=0;entryDy=0;" edge="1" parent="1" source="chc9OdD4yWV7xc_dcuEu-166" target="chc9OdD4yWV7xc_dcuEu-177">
          <mxGeometry relative="1" as="geometry">
            <mxPoint y="1300" as="targetPoint" />
          </mxGeometry>
        </mxCell>
        <mxCell id="chc9OdD4yWV7xc_dcuEu-165" style="edgeStyle=orthogonalEdgeStyle;rounded=0;orthogonalLoop=1;jettySize=auto;html=1;exitX=0.5;exitY=1;exitDx=0;exitDy=0;entryX=0.5;entryY=0;entryDx=0;entryDy=0;" edge="1" parent="1" source="chc9OdD4yWV7xc_dcuEu-166" target="chc9OdD4yWV7xc_dcuEu-252">
          <mxGeometry relative="1" as="geometry">
            <mxPoint x="230" y="1300" as="targetPoint" />
          </mxGeometry>
        </mxCell>
        <mxCell id="chc9OdD4yWV7xc_dcuEu-166" value="methodが決められたもの（GET POST PUT DELETE）以外かどうか" style="rhombus;whiteSpace=wrap;html=1;" vertex="1" parent="1">
          <mxGeometry x="-1.2399999999999949" y="1160" width="210" height="80" as="geometry" />
        </mxCell>
        <mxCell id="chc9OdD4yWV7xc_dcuEu-167" value="エラ〜メッセージを&lt;br&gt;設定" style="rounded=0;whiteSpace=wrap;html=1;" vertex="1" parent="1">
          <mxGeometry x="-170" y="1170" width="120" height="60" as="geometry" />
        </mxCell>
        <mxCell id="chc9OdD4yWV7xc_dcuEu-168" value="No" style="text;html=1;strokeColor=none;fillColor=none;align=center;verticalAlign=middle;whiteSpace=wrap;rounded=0;" vertex="1" parent="1">
          <mxGeometry x="-50" y="1170" width="60" height="30" as="geometry" />
        </mxCell>
        <mxCell id="chc9OdD4yWV7xc_dcuEu-169" value="GET" style="text;html=1;strokeColor=none;fillColor=none;align=center;verticalAlign=middle;whiteSpace=wrap;rounded=0;" vertex="1" parent="1">
          <mxGeometry x="-385" y="1270" width="60" height="30" as="geometry" />
        </mxCell>
        <mxCell id="chc9OdD4yWV7xc_dcuEu-170" value="POST" style="text;html=1;strokeColor=none;fillColor=none;align=center;verticalAlign=middle;whiteSpace=wrap;rounded=0;" vertex="1" parent="1">
          <mxGeometry x="-35.00000000000001" y="1270" width="60" height="30" as="geometry" />
        </mxCell>
        <mxCell id="chc9OdD4yWV7xc_dcuEu-171" value="DELETE" style="text;html=1;strokeColor=none;fillColor=none;align=center;verticalAlign=middle;whiteSpace=wrap;rounded=0;" vertex="1" parent="1">
          <mxGeometry x="230" y="1270" width="60" height="30" as="geometry" />
        </mxCell>
        <mxCell id="chc9OdD4yWV7xc_dcuEu-172" style="edgeStyle=orthogonalEdgeStyle;rounded=0;orthogonalLoop=1;jettySize=auto;html=1;exitX=0;exitY=0.5;exitDx=0;exitDy=0;" edge="1" parent="1" source="chc9OdD4yWV7xc_dcuEu-174" target="chc9OdD4yWV7xc_dcuEu-178">
          <mxGeometry relative="1" as="geometry" />
        </mxCell>
        <mxCell id="chc9OdD4yWV7xc_dcuEu-173" style="edgeStyle=orthogonalEdgeStyle;rounded=0;orthogonalLoop=1;jettySize=auto;html=1;exitX=0.5;exitY=1;exitDx=0;exitDy=0;entryX=0.5;entryY=0;entryDx=0;entryDy=0;" edge="1" parent="1" source="chc9OdD4yWV7xc_dcuEu-174" target="chc9OdD4yWV7xc_dcuEu-186">
          <mxGeometry relative="1" as="geometry" />
        </mxCell>
        <mxCell id="chc9OdD4yWV7xc_dcuEu-174" value="CGIかどうか" style="rhombus;whiteSpace=wrap;html=1;" vertex="1" parent="1">
          <mxGeometry x="-470" y="1300" width="170" height="60" as="geometry" />
        </mxCell>
        <mxCell id="chc9OdD4yWV7xc_dcuEu-175" style="edgeStyle=orthogonalEdgeStyle;rounded=0;orthogonalLoop=1;jettySize=auto;html=1;exitX=0;exitY=0.5;exitDx=0;exitDy=0;entryX=1;entryY=0.5;entryDx=0;entryDy=0;" edge="1" parent="1" source="chc9OdD4yWV7xc_dcuEu-177" target="chc9OdD4yWV7xc_dcuEu-180">
          <mxGeometry relative="1" as="geometry" />
        </mxCell>
        <mxCell id="chc9OdD4yWV7xc_dcuEu-176" style="edgeStyle=orthogonalEdgeStyle;rounded=0;orthogonalLoop=1;jettySize=auto;html=1;exitX=0.5;exitY=1;exitDx=0;exitDy=0;entryX=0.5;entryY=0;entryDx=0;entryDy=0;" edge="1" parent="1" source="chc9OdD4yWV7xc_dcuEu-177" target="chc9OdD4yWV7xc_dcuEu-243">
          <mxGeometry relative="1" as="geometry">
            <mxPoint x="-35.5" y="1380" as="targetPoint" />
          </mxGeometry>
        </mxCell>
        <mxCell id="chc9OdD4yWV7xc_dcuEu-177" value="CGIかどうか" style="rhombus;whiteSpace=wrap;html=1;" vertex="1" parent="1">
          <mxGeometry x="-120.5" y="1300" width="170" height="40" as="geometry" />
        </mxCell>
        <mxCell id="chc9OdD4yWV7xc_dcuEu-178" value="制作途中" style="rounded=0;whiteSpace=wrap;html=1;" vertex="1" parent="1">
          <mxGeometry x="-610" y="1315" width="120" height="30" as="geometry" />
        </mxCell>
        <mxCell id="chc9OdD4yWV7xc_dcuEu-179" value="Yes" style="text;html=1;strokeColor=none;fillColor=none;align=center;verticalAlign=middle;whiteSpace=wrap;rounded=0;" vertex="1" parent="1">
          <mxGeometry x="-500" y="1300" width="60" height="30" as="geometry" />
        </mxCell>
        <mxCell id="chc9OdD4yWV7xc_dcuEu-180" value="制作途中" style="rounded=0;whiteSpace=wrap;html=1;" vertex="1" parent="1">
          <mxGeometry x="-260" y="1290" width="120" height="60" as="geometry" />
        </mxCell>
        <mxCell id="chc9OdD4yWV7xc_dcuEu-181" value="Yes" style="text;html=1;strokeColor=none;fillColor=none;align=center;verticalAlign=middle;whiteSpace=wrap;rounded=0;" vertex="1" parent="1">
          <mxGeometry x="-155" y="1300" width="60" height="30" as="geometry" />
        </mxCell>
        <mxCell id="chc9OdD4yWV7xc_dcuEu-182" value="" style="endArrow=none;dashed=1;html=1;dashPattern=1 3;strokeWidth=2;rounded=0;entryX=0;entryY=0.25;entryDx=0;entryDy=0;exitX=0.968;exitY=0.642;exitDx=0;exitDy=0;exitPerimeter=0;" edge="1" parent="1" source="chc9OdD4yWV7xc_dcuEu-183" target="chc9OdD4yWV7xc_dcuEu-157">
          <mxGeometry width="50" height="50" relative="1" as="geometry">
            <mxPoint x="-45" y="1021.25" as="sourcePoint" />
            <mxPoint x="-120" y="1020" as="targetPoint" />
          </mxGeometry>
        </mxCell>
        <mxCell id="chc9OdD4yWV7xc_dcuEu-183" value="locationの情報は&lt;br style=&quot;border-color: var(--border-color);&quot;&gt;location パス{なんか}&lt;br style=&quot;border-color: var(--border-color);&quot;&gt;でパスがリクエストと一致したとこの&lt;br style=&quot;border-color: var(--border-color);&quot;&gt;なんかを撮ればいい" style="ellipse;shape=cloud;whiteSpace=wrap;html=1;" vertex="1" parent="1">
          <mxGeometry x="-330" y="940" width="310" height="120" as="geometry" />
        </mxCell>
        <mxCell id="chc9OdD4yWV7xc_dcuEu-184" style="edgeStyle=orthogonalEdgeStyle;rounded=0;orthogonalLoop=1;jettySize=auto;html=1;exitX=0;exitY=0.5;exitDx=0;exitDy=0;entryX=1;entryY=0.5;entryDx=0;entryDy=0;" edge="1" parent="1" source="chc9OdD4yWV7xc_dcuEu-186" target="chc9OdD4yWV7xc_dcuEu-187">
          <mxGeometry relative="1" as="geometry" />
        </mxCell>
        <mxCell id="chc9OdD4yWV7xc_dcuEu-185" style="edgeStyle=orthogonalEdgeStyle;rounded=0;orthogonalLoop=1;jettySize=auto;html=1;exitX=0.5;exitY=1;exitDx=0;exitDy=0;entryX=0.5;entryY=0;entryDx=0;entryDy=0;" edge="1" parent="1" source="chc9OdD4yWV7xc_dcuEu-186" target="chc9OdD4yWV7xc_dcuEu-190">
          <mxGeometry relative="1" as="geometry" />
        </mxCell>
        <mxCell id="chc9OdD4yWV7xc_dcuEu-186" value="redirectがあるか" style="rhombus;whiteSpace=wrap;html=1;" vertex="1" parent="1">
          <mxGeometry x="-470" y="1390" width="170" height="60" as="geometry" />
        </mxCell>
        <mxCell id="chc9OdD4yWV7xc_dcuEu-187" value="制作途中" style="rounded=0;whiteSpace=wrap;html=1;" vertex="1" parent="1">
          <mxGeometry x="-610" y="1405" width="120" height="30" as="geometry" />
        </mxCell>
        <mxCell id="chc9OdD4yWV7xc_dcuEu-188" style="edgeStyle=orthogonalEdgeStyle;rounded=0;orthogonalLoop=1;jettySize=auto;html=1;exitX=0;exitY=0.5;exitDx=0;exitDy=0;entryX=1;entryY=0.5;entryDx=0;entryDy=0;" edge="1" parent="1" source="chc9OdD4yWV7xc_dcuEu-190" target="chc9OdD4yWV7xc_dcuEu-195">
          <mxGeometry relative="1" as="geometry" />
        </mxCell>
        <mxCell id="chc9OdD4yWV7xc_dcuEu-189" style="edgeStyle=orthogonalEdgeStyle;rounded=0;orthogonalLoop=1;jettySize=auto;html=1;exitX=0.5;exitY=1;exitDx=0;exitDy=0;entryX=0.5;entryY=0;entryDx=0;entryDy=0;" edge="1" parent="1" source="chc9OdD4yWV7xc_dcuEu-190" target="chc9OdD4yWV7xc_dcuEu-210">
          <mxGeometry relative="1" as="geometry" />
        </mxCell>
        <mxCell id="chc9OdD4yWV7xc_dcuEu-190" value="指定パスには拡張子（html等）&lt;br&gt;があるか" style="rhombus;whiteSpace=wrap;html=1;" vertex="1" parent="1">
          <mxGeometry x="-470" y="1480" width="170" height="60" as="geometry" />
        </mxCell>
        <mxCell id="chc9OdD4yWV7xc_dcuEu-191" value="No" style="text;html=1;strokeColor=none;fillColor=none;align=center;verticalAlign=middle;whiteSpace=wrap;rounded=0;" vertex="1" parent="1">
          <mxGeometry x="-395" y="1360" width="60" height="30" as="geometry" />
        </mxCell>
        <mxCell id="chc9OdD4yWV7xc_dcuEu-192" value="Yes" style="text;html=1;strokeColor=none;fillColor=none;align=center;verticalAlign=middle;whiteSpace=wrap;rounded=0;" vertex="1" parent="1">
          <mxGeometry x="-500" y="1390" width="60" height="30" as="geometry" />
        </mxCell>
        <mxCell id="chc9OdD4yWV7xc_dcuEu-193" value="No" style="text;html=1;strokeColor=none;fillColor=none;align=center;verticalAlign=middle;whiteSpace=wrap;rounded=0;" vertex="1" parent="1">
          <mxGeometry x="-390" y="1450" width="60" height="30" as="geometry" />
        </mxCell>
        <mxCell id="chc9OdD4yWV7xc_dcuEu-194" style="edgeStyle=orthogonalEdgeStyle;rounded=0;orthogonalLoop=1;jettySize=auto;html=1;exitX=0.5;exitY=1;exitDx=0;exitDy=0;entryX=0.5;entryY=0;entryDx=0;entryDy=0;" edge="1" parent="1" source="chc9OdD4yWV7xc_dcuEu-195" target="chc9OdD4yWV7xc_dcuEu-198">
          <mxGeometry relative="1" as="geometry" />
        </mxCell>
        <mxCell id="chc9OdD4yWV7xc_dcuEu-195" value="指定パスの最に&lt;br&gt;/　をつける" style="rounded=0;whiteSpace=wrap;html=1;" vertex="1" parent="1">
          <mxGeometry x="-610" y="1490" width="120" height="40" as="geometry" />
        </mxCell>
        <mxCell id="chc9OdD4yWV7xc_dcuEu-196" style="edgeStyle=orthogonalEdgeStyle;rounded=0;orthogonalLoop=1;jettySize=auto;html=1;exitX=0;exitY=0.5;exitDx=0;exitDy=0;entryX=1;entryY=0.5;entryDx=0;entryDy=0;" edge="1" parent="1" source="chc9OdD4yWV7xc_dcuEu-198" target="chc9OdD4yWV7xc_dcuEu-199">
          <mxGeometry relative="1" as="geometry" />
        </mxCell>
        <mxCell id="chc9OdD4yWV7xc_dcuEu-197" style="edgeStyle=orthogonalEdgeStyle;rounded=0;orthogonalLoop=1;jettySize=auto;html=1;exitX=0.5;exitY=1;exitDx=0;exitDy=0;entryX=0.5;entryY=0;entryDx=0;entryDy=0;" edge="1" parent="1" source="chc9OdD4yWV7xc_dcuEu-198" target="chc9OdD4yWV7xc_dcuEu-202">
          <mxGeometry relative="1" as="geometry" />
        </mxCell>
        <mxCell id="chc9OdD4yWV7xc_dcuEu-198" value="location情報内にindexの&lt;br&gt;情報はあるか" style="rhombus;whiteSpace=wrap;html=1;" vertex="1" parent="1">
          <mxGeometry x="-645" y="1550" width="190" height="50" as="geometry" />
        </mxCell>
        <mxCell id="chc9OdD4yWV7xc_dcuEu-199" value="自分で事前に決めておいたindexファイルをくっつける" style="rounded=0;whiteSpace=wrap;html=1;" vertex="1" parent="1">
          <mxGeometry x="-850" y="1555" width="180" height="40" as="geometry" />
        </mxCell>
        <mxCell id="chc9OdD4yWV7xc_dcuEu-200" value="No" style="text;html=1;strokeColor=none;fillColor=none;align=center;verticalAlign=middle;whiteSpace=wrap;rounded=0;" vertex="1" parent="1">
          <mxGeometry x="-680" y="1550" width="60" height="30" as="geometry" />
        </mxCell>
        <mxCell id="chc9OdD4yWV7xc_dcuEu-201" style="edgeStyle=orthogonalEdgeStyle;rounded=0;orthogonalLoop=1;jettySize=auto;html=1;exitX=0.5;exitY=1;exitDx=0;exitDy=0;entryX=0.5;entryY=0;entryDx=0;entryDy=0;" edge="1" parent="1" source="chc9OdD4yWV7xc_dcuEu-202" target="chc9OdD4yWV7xc_dcuEu-205">
          <mxGeometry relative="1" as="geometry" />
        </mxCell>
        <mxCell id="chc9OdD4yWV7xc_dcuEu-202" value="index情報文だけさっき作った&lt;br&gt;フォルダ情報に追加していく" style="rounded=0;whiteSpace=wrap;html=1;" vertex="1" parent="1">
          <mxGeometry x="-640" y="1620" width="180" height="55" as="geometry" />
        </mxCell>
        <mxCell id="chc9OdD4yWV7xc_dcuEu-203" style="edgeStyle=orthogonalEdgeStyle;rounded=0;orthogonalLoop=1;jettySize=auto;html=1;exitX=0;exitY=0.5;exitDx=0;exitDy=0;entryX=0.111;entryY=0;entryDx=0;entryDy=0;entryPerimeter=0;" edge="1" parent="1" source="chc9OdD4yWV7xc_dcuEu-205" target="chc9OdD4yWV7xc_dcuEu-202">
          <mxGeometry relative="1" as="geometry">
            <Array as="points">
              <mxPoint x="-665" y="1730" />
              <mxPoint x="-665" y="1600" />
              <mxPoint x="-620" y="1600" />
            </Array>
          </mxGeometry>
        </mxCell>
        <mxCell id="chc9OdD4yWV7xc_dcuEu-204" style="edgeStyle=orthogonalEdgeStyle;rounded=0;orthogonalLoop=1;jettySize=auto;html=1;exitX=0.5;exitY=1;exitDx=0;exitDy=0;entryX=0.5;entryY=0;entryDx=0;entryDy=0;" edge="1" parent="1" source="chc9OdD4yWV7xc_dcuEu-205" target="chc9OdD4yWV7xc_dcuEu-220">
          <mxGeometry relative="1" as="geometry" />
        </mxCell>
        <mxCell id="chc9OdD4yWV7xc_dcuEu-205" value="作ったファイルは存在している&lt;br&gt;or&lt;br&gt;インデックス情報がもうない" style="rhombus;whiteSpace=wrap;html=1;" vertex="1" parent="1">
          <mxGeometry x="-657.5" y="1700" width="215" height="60" as="geometry" />
        </mxCell>
        <mxCell id="chc9OdD4yWV7xc_dcuEu-206" value="No" style="text;html=1;strokeColor=none;fillColor=none;align=center;verticalAlign=middle;whiteSpace=wrap;rounded=0;" vertex="1" parent="1">
          <mxGeometry x="-705" y="1670" width="60" height="30" as="geometry" />
        </mxCell>
        <mxCell id="chc9OdD4yWV7xc_dcuEu-207" value="No" style="text;html=1;strokeColor=none;fillColor=none;align=center;verticalAlign=middle;whiteSpace=wrap;rounded=0;" vertex="1" parent="1">
          <mxGeometry x="-510" y="1480" width="60" height="30" as="geometry" />
        </mxCell>
        <mxCell id="chc9OdD4yWV7xc_dcuEu-208" style="edgeStyle=orthogonalEdgeStyle;rounded=0;orthogonalLoop=1;jettySize=auto;html=1;exitX=0.5;exitY=1;exitDx=0;exitDy=0;entryX=0.5;entryY=0;entryDx=0;entryDy=0;" edge="1" parent="1" source="chc9OdD4yWV7xc_dcuEu-210" target="chc9OdD4yWV7xc_dcuEu-213">
          <mxGeometry relative="1" as="geometry" />
        </mxCell>
        <mxCell id="chc9OdD4yWV7xc_dcuEu-209" style="edgeStyle=orthogonalEdgeStyle;rounded=0;orthogonalLoop=1;jettySize=auto;html=1;exitX=1;exitY=0.5;exitDx=0;exitDy=0;entryX=0.5;entryY=0;entryDx=0;entryDy=0;" edge="1" parent="1" source="chc9OdD4yWV7xc_dcuEu-210" target="chc9OdD4yWV7xc_dcuEu-215">
          <mxGeometry relative="1" as="geometry" />
        </mxCell>
        <mxCell id="chc9OdD4yWV7xc_dcuEu-210" value="ファイルは開けるかどうか" style="rhombus;whiteSpace=wrap;html=1;" vertex="1" parent="1">
          <mxGeometry x="-440" y="1580" width="185" height="50" as="geometry" />
        </mxCell>
        <mxCell id="chc9OdD4yWV7xc_dcuEu-211" value="Yes" style="text;html=1;strokeColor=none;fillColor=none;align=center;verticalAlign=middle;whiteSpace=wrap;rounded=0;" vertex="1" parent="1">
          <mxGeometry x="-360" y="1550" width="60" height="30" as="geometry" />
        </mxCell>
        <mxCell id="chc9OdD4yWV7xc_dcuEu-212" style="edgeStyle=orthogonalEdgeStyle;rounded=0;orthogonalLoop=1;jettySize=auto;html=1;exitX=0.75;exitY=1;exitDx=0;exitDy=0;entryX=0;entryY=0.5;entryDx=0;entryDy=0;" edge="1" parent="1" source="chc9OdD4yWV7xc_dcuEu-213" target="chc9OdD4yWV7xc_dcuEu-249">
          <mxGeometry relative="1" as="geometry" />
        </mxCell>
        <mxCell id="chc9OdD4yWV7xc_dcuEu-213" value="成功メッセージの作成" style="rounded=0;whiteSpace=wrap;html=1;" vertex="1" parent="1">
          <mxGeometry x="-410" y="1725" width="125" height="35" as="geometry" />
        </mxCell>
        <mxCell id="chc9OdD4yWV7xc_dcuEu-214" style="edgeStyle=orthogonalEdgeStyle;rounded=0;orthogonalLoop=1;jettySize=auto;html=1;exitX=0.75;exitY=1;exitDx=0;exitDy=0;" edge="1" parent="1" source="chc9OdD4yWV7xc_dcuEu-215" target="chc9OdD4yWV7xc_dcuEu-249">
          <mxGeometry relative="1" as="geometry" />
        </mxCell>
        <mxCell id="chc9OdD4yWV7xc_dcuEu-215" value="エラーメッセージの作成" style="rounded=0;whiteSpace=wrap;html=1;" vertex="1" parent="1">
          <mxGeometry x="-275" y="1660" width="135" height="35" as="geometry" />
        </mxCell>
        <mxCell id="chc9OdD4yWV7xc_dcuEu-216" value="Yes" style="text;html=1;strokeColor=none;fillColor=none;align=center;verticalAlign=middle;whiteSpace=wrap;rounded=0;" vertex="1" parent="1">
          <mxGeometry x="-360" y="1632.5" width="60" height="30" as="geometry" />
        </mxCell>
        <mxCell id="chc9OdD4yWV7xc_dcuEu-217" value="No" style="text;html=1;strokeColor=none;fillColor=none;align=center;verticalAlign=middle;whiteSpace=wrap;rounded=0;" vertex="1" parent="1">
          <mxGeometry x="-255" y="1630" width="60" height="30" as="geometry" />
        </mxCell>
        <mxCell id="chc9OdD4yWV7xc_dcuEu-218" style="edgeStyle=orthogonalEdgeStyle;rounded=0;orthogonalLoop=1;jettySize=auto;html=1;exitX=1;exitY=0.5;exitDx=0;exitDy=0;entryX=0.146;entryY=0.34;entryDx=0;entryDy=0;entryPerimeter=0;" edge="1" parent="1" source="chc9OdD4yWV7xc_dcuEu-220" target="chc9OdD4yWV7xc_dcuEu-210">
          <mxGeometry relative="1" as="geometry">
            <Array as="points">
              <mxPoint x="-450" y="1785" />
              <mxPoint x="-450" y="1597" />
            </Array>
          </mxGeometry>
        </mxCell>
        <mxCell id="chc9OdD4yWV7xc_dcuEu-219" style="edgeStyle=orthogonalEdgeStyle;rounded=0;orthogonalLoop=1;jettySize=auto;html=1;exitX=0.5;exitY=1;exitDx=0;exitDy=0;entryX=0.5;entryY=0;entryDx=0;entryDy=0;" edge="1" parent="1" source="chc9OdD4yWV7xc_dcuEu-220" target="chc9OdD4yWV7xc_dcuEu-225">
          <mxGeometry relative="1" as="geometry" />
        </mxCell>
        <mxCell id="chc9OdD4yWV7xc_dcuEu-220" value="ファイルが存在する" style="rhombus;whiteSpace=wrap;html=1;" vertex="1" parent="1">
          <mxGeometry x="-657.5" y="1770" width="215" height="30" as="geometry" />
        </mxCell>
        <mxCell id="chc9OdD4yWV7xc_dcuEu-221" value="Yes" style="text;html=1;strokeColor=none;fillColor=none;align=center;verticalAlign=middle;whiteSpace=wrap;rounded=0;" vertex="1" parent="1">
          <mxGeometry x="-490" y="1750" width="60" height="30" as="geometry" />
        </mxCell>
        <mxCell id="chc9OdD4yWV7xc_dcuEu-222" value="Yes" style="text;html=1;strokeColor=none;fillColor=none;align=center;verticalAlign=middle;whiteSpace=wrap;rounded=0;" vertex="1" parent="1">
          <mxGeometry x="-600" y="1750" width="60" height="30" as="geometry" />
        </mxCell>
        <mxCell id="chc9OdD4yWV7xc_dcuEu-223" style="edgeStyle=orthogonalEdgeStyle;rounded=0;orthogonalLoop=1;jettySize=auto;html=1;exitX=1;exitY=0.5;exitDx=0;exitDy=0;entryX=0.054;entryY=0.6;entryDx=0;entryDy=0;entryPerimeter=0;" edge="1" parent="1" source="chc9OdD4yWV7xc_dcuEu-225" target="chc9OdD4yWV7xc_dcuEu-210">
          <mxGeometry relative="1" as="geometry">
            <mxPoint x="-380" y="1840" as="targetPoint" />
            <Array as="points">
              <mxPoint x="-430" y="1835" />
            </Array>
          </mxGeometry>
        </mxCell>
        <mxCell id="chc9OdD4yWV7xc_dcuEu-224" style="edgeStyle=orthogonalEdgeStyle;rounded=0;orthogonalLoop=1;jettySize=auto;html=1;exitX=0.5;exitY=1;exitDx=0;exitDy=0;entryX=0.5;entryY=0;entryDx=0;entryDy=0;" edge="1" parent="1" source="chc9OdD4yWV7xc_dcuEu-225" target="chc9OdD4yWV7xc_dcuEu-229">
          <mxGeometry relative="1" as="geometry" />
        </mxCell>
        <mxCell id="chc9OdD4yWV7xc_dcuEu-225" value="autoindexは設定されている" style="rhombus;whiteSpace=wrap;html=1;" vertex="1" parent="1">
          <mxGeometry x="-657.5" y="1820" width="215" height="30" as="geometry" />
        </mxCell>
        <mxCell id="chc9OdD4yWV7xc_dcuEu-226" value="No" style="text;html=1;strokeColor=none;fillColor=none;align=center;verticalAlign=middle;whiteSpace=wrap;rounded=0;" vertex="1" parent="1">
          <mxGeometry x="-470" y="1800" width="60" height="30" as="geometry" />
        </mxCell>
        <mxCell id="chc9OdD4yWV7xc_dcuEu-227" style="edgeStyle=orthogonalEdgeStyle;rounded=0;orthogonalLoop=1;jettySize=auto;html=1;" edge="1" parent="1">
          <mxGeometry relative="1" as="geometry">
            <mxPoint x="-514.1666666666667" y="1875" as="sourcePoint" />
            <mxPoint x="-514.1666666666667" y="1895" as="targetPoint" />
          </mxGeometry>
        </mxCell>
        <mxCell id="chc9OdD4yWV7xc_dcuEu-228" style="edgeStyle=orthogonalEdgeStyle;rounded=0;orthogonalLoop=1;jettySize=auto;html=1;exitX=0.5;exitY=1;exitDx=0;exitDy=0;entryX=0.5;entryY=0;entryDx=0;entryDy=0;" edge="1" parent="1" source="chc9OdD4yWV7xc_dcuEu-229" target="chc9OdD4yWV7xc_dcuEu-232">
          <mxGeometry relative="1" as="geometry" />
        </mxCell>
        <mxCell id="chc9OdD4yWV7xc_dcuEu-229" value="元々のディレクトリ情報の取得" style="rounded=0;whiteSpace=wrap;html=1;" vertex="1" parent="1">
          <mxGeometry x="-640" y="1870" width="180" height="30" as="geometry" />
        </mxCell>
        <mxCell id="chc9OdD4yWV7xc_dcuEu-230" value="Yes" style="text;html=1;strokeColor=none;fillColor=none;align=center;verticalAlign=middle;whiteSpace=wrap;rounded=0;" vertex="1" parent="1">
          <mxGeometry x="-560" y="1850" width="60" height="30" as="geometry" />
        </mxCell>
        <mxCell id="chc9OdD4yWV7xc_dcuEu-231" style="edgeStyle=orthogonalEdgeStyle;rounded=0;orthogonalLoop=1;jettySize=auto;html=1;exitX=0.5;exitY=1;exitDx=0;exitDy=0;entryX=0.5;entryY=0;entryDx=0;entryDy=0;" edge="1" parent="1" source="chc9OdD4yWV7xc_dcuEu-232" target="chc9OdD4yWV7xc_dcuEu-236">
          <mxGeometry relative="1" as="geometry" />
        </mxCell>
        <mxCell id="chc9OdD4yWV7xc_dcuEu-232" value="ディレクトリは存在している" style="rhombus;whiteSpace=wrap;html=1;" vertex="1" parent="1">
          <mxGeometry x="-635" y="1920" width="170" height="40" as="geometry" />
        </mxCell>
        <mxCell id="chc9OdD4yWV7xc_dcuEu-233" style="edgeStyle=orthogonalEdgeStyle;rounded=0;orthogonalLoop=1;jettySize=auto;html=1;exitX=0.5;exitY=1;exitDx=0;exitDy=0;entryX=0.5;entryY=1;entryDx=0;entryDy=0;" edge="1" parent="1" source="chc9OdD4yWV7xc_dcuEu-234" target="chc9OdD4yWV7xc_dcuEu-215">
          <mxGeometry relative="1" as="geometry">
            <Array as="points">
              <mxPoint x="-207" y="1940" />
            </Array>
          </mxGeometry>
        </mxCell>
        <mxCell id="chc9OdD4yWV7xc_dcuEu-234" value="No" style="text;html=1;strokeColor=none;fillColor=none;align=center;verticalAlign=middle;whiteSpace=wrap;rounded=0;" vertex="1" parent="1">
          <mxGeometry x="-490" y="1910" width="60" height="30" as="geometry" />
        </mxCell>
        <mxCell id="chc9OdD4yWV7xc_dcuEu-235" style="edgeStyle=orthogonalEdgeStyle;rounded=0;orthogonalLoop=1;jettySize=auto;html=1;exitX=0.5;exitY=1;exitDx=0;exitDy=0;entryX=0.5;entryY=0;entryDx=0;entryDy=0;" edge="1" parent="1" source="chc9OdD4yWV7xc_dcuEu-236" target="chc9OdD4yWV7xc_dcuEu-238">
          <mxGeometry relative="1" as="geometry" />
        </mxCell>
        <mxCell id="chc9OdD4yWV7xc_dcuEu-236" value="ディレクトリの読み込み" style="rounded=0;whiteSpace=wrap;html=1;" vertex="1" parent="1">
          <mxGeometry x="-635" y="1980" width="170" height="30" as="geometry" />
        </mxCell>
        <mxCell id="chc9OdD4yWV7xc_dcuEu-237" style="edgeStyle=orthogonalEdgeStyle;rounded=0;orthogonalLoop=1;jettySize=auto;html=1;exitX=1;exitY=0.5;exitDx=0;exitDy=0;entryX=0.5;entryY=1;entryDx=0;entryDy=0;" edge="1" parent="1" source="chc9OdD4yWV7xc_dcuEu-238" target="chc9OdD4yWV7xc_dcuEu-213">
          <mxGeometry relative="1" as="geometry" />
        </mxCell>
        <mxCell id="chc9OdD4yWV7xc_dcuEu-238" value="autoindexの形式に合わせてメッセージ作成" style="rounded=0;whiteSpace=wrap;html=1;" vertex="1" parent="1">
          <mxGeometry x="-635" y="2030" width="170" height="30" as="geometry" />
        </mxCell>
        <mxCell id="chc9OdD4yWV7xc_dcuEu-239" value="Yes" style="text;html=1;strokeColor=none;fillColor=none;align=center;verticalAlign=middle;whiteSpace=wrap;rounded=0;" vertex="1" parent="1">
          <mxGeometry x="-560" y="1960" width="60" height="30" as="geometry" />
        </mxCell>
        <mxCell id="chc9OdD4yWV7xc_dcuEu-240" value="ファイルの準備" style="rounded=0;whiteSpace=wrap;html=1;" vertex="1" parent="1">
          <mxGeometry x="-410" y="1660" width="125" height="35" as="geometry" />
        </mxCell>
        <mxCell id="chc9OdD4yWV7xc_dcuEu-241" style="edgeStyle=orthogonalEdgeStyle;rounded=0;orthogonalLoop=1;jettySize=auto;html=1;exitX=0;exitY=0.5;exitDx=0;exitDy=0;entryX=1;entryY=1;entryDx=0;entryDy=0;" edge="1" parent="1" source="chc9OdD4yWV7xc_dcuEu-243" target="chc9OdD4yWV7xc_dcuEu-217">
          <mxGeometry relative="1" as="geometry">
            <Array as="points">
              <mxPoint x="-195" y="1385" />
            </Array>
          </mxGeometry>
        </mxCell>
        <mxCell id="chc9OdD4yWV7xc_dcuEu-242" style="edgeStyle=orthogonalEdgeStyle;rounded=0;orthogonalLoop=1;jettySize=auto;html=1;exitX=0.5;exitY=1;exitDx=0;exitDy=0;entryX=0.5;entryY=0;entryDx=0;entryDy=0;" edge="1" parent="1" source="chc9OdD4yWV7xc_dcuEu-243" target="chc9OdD4yWV7xc_dcuEu-246">
          <mxGeometry relative="1" as="geometry" />
        </mxCell>
        <mxCell id="chc9OdD4yWV7xc_dcuEu-243" value="ディレクトリかどうか(ディレクトリが開けるか)&lt;br&gt;" style="rhombus;whiteSpace=wrap;html=1;" vertex="1" parent="1">
          <mxGeometry x="-120" y="1365" width="170" height="40" as="geometry" />
        </mxCell>
        <mxCell id="chc9OdD4yWV7xc_dcuEu-244" value="No" style="text;html=1;strokeColor=none;fillColor=none;align=center;verticalAlign=middle;whiteSpace=wrap;rounded=0;" vertex="1" parent="1">
          <mxGeometry x="-237.5" y="1555" width="60" height="30" as="geometry" />
        </mxCell>
        <mxCell id="chc9OdD4yWV7xc_dcuEu-245" style="edgeStyle=orthogonalEdgeStyle;rounded=0;orthogonalLoop=1;jettySize=auto;html=1;exitX=0.5;exitY=1;exitDx=0;exitDy=0;entryX=1;entryY=0.5;entryDx=0;entryDy=0;" edge="1" parent="1" source="chc9OdD4yWV7xc_dcuEu-246" target="chc9OdD4yWV7xc_dcuEu-213">
          <mxGeometry relative="1" as="geometry" />
        </mxCell>
        <mxCell id="chc9OdD4yWV7xc_dcuEu-246" value="与えられた内容で&lt;br&gt;ファイルを生成&lt;br&gt;（ファイル名はこちらで決めて良い？" style="rounded=0;whiteSpace=wrap;html=1;" vertex="1" parent="1">
          <mxGeometry x="-145" y="1425" width="220" height="55" as="geometry" />
        </mxCell>
        <mxCell id="chc9OdD4yWV7xc_dcuEu-247" value="POSTのリファレンスよむ" style="ellipse;shape=cloud;whiteSpace=wrap;html=1;" vertex="1" parent="1">
          <mxGeometry y="1490" width="151" height="60" as="geometry" />
        </mxCell>
        <mxCell id="chc9OdD4yWV7xc_dcuEu-248" value="" style="endArrow=none;dashed=1;html=1;dashPattern=1 3;strokeWidth=2;rounded=0;entryX=0.795;entryY=1;entryDx=0;entryDy=0;entryPerimeter=0;exitX=0.142;exitY=0.213;exitDx=0;exitDy=0;exitPerimeter=0;" edge="1" parent="1" source="chc9OdD4yWV7xc_dcuEu-247" target="chc9OdD4yWV7xc_dcuEu-246">
          <mxGeometry width="50" height="50" relative="1" as="geometry">
            <mxPoint x="-20" y="1580" as="sourcePoint" />
            <mxPoint x="30" y="1530" as="targetPoint" />
          </mxGeometry>
        </mxCell>
        <mxCell id="chc9OdD4yWV7xc_dcuEu-249" value="終了" style="rounded=1;whiteSpace=wrap;html=1;fontSize=12;glass=0;strokeWidth=1;shadow=0;fillColor=#f8cecc;strokeColor=#b85450;" vertex="1" parent="1">
          <mxGeometry x="-20" y="1810" width="120" height="30" as="geometry" />
        </mxCell>
        <mxCell id="chc9OdD4yWV7xc_dcuEu-250" style="edgeStyle=orthogonalEdgeStyle;rounded=0;orthogonalLoop=1;jettySize=auto;html=1;exitX=1;exitY=0.5;exitDx=0;exitDy=0;entryX=0;entryY=0.5;entryDx=0;entryDy=0;" edge="1" parent="1" source="chc9OdD4yWV7xc_dcuEu-252" target="chc9OdD4yWV7xc_dcuEu-254">
          <mxGeometry relative="1" as="geometry" />
        </mxCell>
        <mxCell id="chc9OdD4yWV7xc_dcuEu-251" style="edgeStyle=orthogonalEdgeStyle;rounded=0;orthogonalLoop=1;jettySize=auto;html=1;exitX=0.5;exitY=1;exitDx=0;exitDy=0;" edge="1" parent="1" source="chc9OdD4yWV7xc_dcuEu-252" target="chc9OdD4yWV7xc_dcuEu-259">
          <mxGeometry relative="1" as="geometry" />
        </mxCell>
        <mxCell id="chc9OdD4yWV7xc_dcuEu-252" value="ファイルは存在しているか" style="rhombus;whiteSpace=wrap;html=1;" vertex="1" parent="1">
          <mxGeometry x="140" y="1300" width="170" height="40" as="geometry" />
        </mxCell>
        <mxCell id="chc9OdD4yWV7xc_dcuEu-253" style="edgeStyle=orthogonalEdgeStyle;rounded=0;orthogonalLoop=1;jettySize=auto;html=1;exitX=0.5;exitY=1;exitDx=0;exitDy=0;entryX=1;entryY=0.25;entryDx=0;entryDy=0;" edge="1" parent="1" source="chc9OdD4yWV7xc_dcuEu-254" target="chc9OdD4yWV7xc_dcuEu-249">
          <mxGeometry relative="1" as="geometry" />
        </mxCell>
        <mxCell id="chc9OdD4yWV7xc_dcuEu-254" value="エラーメッセージの作成" style="rounded=0;whiteSpace=wrap;html=1;" vertex="1" parent="1">
          <mxGeometry x="330" y="1302.5" width="135" height="35" as="geometry" />
        </mxCell>
        <mxCell id="chc9OdD4yWV7xc_dcuEu-255" value="Yes" style="text;html=1;strokeColor=none;fillColor=none;align=center;verticalAlign=middle;whiteSpace=wrap;rounded=0;" vertex="1" parent="1">
          <mxGeometry x="-50" y="1395" width="60" height="30" as="geometry" />
        </mxCell>
        <mxCell id="chc9OdD4yWV7xc_dcuEu-256" value="No" style="text;html=1;strokeColor=none;fillColor=none;align=center;verticalAlign=middle;whiteSpace=wrap;rounded=0;" vertex="1" parent="1">
          <mxGeometry x="280" y="1290" width="60" height="30" as="geometry" />
        </mxCell>
        <mxCell id="chc9OdD4yWV7xc_dcuEu-257" style="edgeStyle=orthogonalEdgeStyle;rounded=0;orthogonalLoop=1;jettySize=auto;html=1;exitX=1;exitY=0.5;exitDx=0;exitDy=0;entryX=0.074;entryY=1.043;entryDx=0;entryDy=0;entryPerimeter=0;" edge="1" parent="1" source="chc9OdD4yWV7xc_dcuEu-259" target="chc9OdD4yWV7xc_dcuEu-254">
          <mxGeometry relative="1" as="geometry" />
        </mxCell>
        <mxCell id="chc9OdD4yWV7xc_dcuEu-258" style="edgeStyle=orthogonalEdgeStyle;rounded=0;orthogonalLoop=1;jettySize=auto;html=1;exitX=0.5;exitY=1;exitDx=0;exitDy=0;entryX=0.5;entryY=0;entryDx=0;entryDy=0;" edge="1" parent="1" source="chc9OdD4yWV7xc_dcuEu-259" target="chc9OdD4yWV7xc_dcuEu-262">
          <mxGeometry relative="1" as="geometry" />
        </mxCell>
        <mxCell id="chc9OdD4yWV7xc_dcuEu-259" value="ファイルは削除して良いか" style="rhombus;whiteSpace=wrap;html=1;" vertex="1" parent="1">
          <mxGeometry x="140" y="1360" width="170" height="40" as="geometry" />
        </mxCell>
        <mxCell id="chc9OdD4yWV7xc_dcuEu-260" style="edgeStyle=orthogonalEdgeStyle;rounded=0;orthogonalLoop=1;jettySize=auto;html=1;exitX=1;exitY=0.5;exitDx=0;exitDy=0;entryX=0.25;entryY=1;entryDx=0;entryDy=0;" edge="1" parent="1" source="chc9OdD4yWV7xc_dcuEu-262" target="chc9OdD4yWV7xc_dcuEu-254">
          <mxGeometry relative="1" as="geometry" />
        </mxCell>
        <mxCell id="chc9OdD4yWV7xc_dcuEu-261" style="edgeStyle=orthogonalEdgeStyle;rounded=0;orthogonalLoop=1;jettySize=auto;html=1;exitX=0.5;exitY=1;exitDx=0;exitDy=0;entryX=0.5;entryY=0;entryDx=0;entryDy=0;" edge="1" parent="1" source="chc9OdD4yWV7xc_dcuEu-262" target="chc9OdD4yWV7xc_dcuEu-266">
          <mxGeometry relative="1" as="geometry" />
        </mxCell>
        <mxCell id="chc9OdD4yWV7xc_dcuEu-262" value="remove関数による削除" style="rhombus;whiteSpace=wrap;html=1;" vertex="1" parent="1">
          <mxGeometry x="140" y="1425" width="170" height="40" as="geometry" />
        </mxCell>
        <mxCell id="chc9OdD4yWV7xc_dcuEu-263" value="No" style="text;html=1;strokeColor=none;fillColor=none;align=center;verticalAlign=middle;whiteSpace=wrap;rounded=0;" vertex="1" parent="1">
          <mxGeometry x="295" y="1350" width="60" height="30" as="geometry" />
        </mxCell>
        <mxCell id="chc9OdD4yWV7xc_dcuEu-264" value="error" style="text;html=1;strokeColor=none;fillColor=none;align=center;verticalAlign=middle;whiteSpace=wrap;rounded=0;" vertex="1" parent="1">
          <mxGeometry x="314.38" y="1420" width="60" height="30" as="geometry" />
        </mxCell>
        <mxCell id="chc9OdD4yWV7xc_dcuEu-265" style="edgeStyle=orthogonalEdgeStyle;rounded=0;orthogonalLoop=1;jettySize=auto;html=1;exitX=0.5;exitY=1;exitDx=0;exitDy=0;entryX=0.642;entryY=-0.067;entryDx=0;entryDy=0;entryPerimeter=0;" edge="1" parent="1" source="chc9OdD4yWV7xc_dcuEu-266" target="chc9OdD4yWV7xc_dcuEu-249">
          <mxGeometry relative="1" as="geometry" />
        </mxCell>
        <mxCell id="chc9OdD4yWV7xc_dcuEu-266" value="成功メッセージの作成" style="rounded=0;whiteSpace=wrap;html=1;" vertex="1" parent="1">
          <mxGeometry x="162.5" y="1490" width="125" height="35" as="geometry" />
        </mxCell>
        <mxCell id="chc9OdD4yWV7xc_dcuEu-273" value="Configration Class" style="rounded=1;whiteSpace=wrap;html=1;fontSize=12;glass=0;strokeWidth=1;shadow=0;fillColor=#d5e8d4;strokeColor=#82b366;" vertex="1" parent="1">
          <mxGeometry x="-820" y="225" width="120" height="40" as="geometry" />
        </mxCell>
        <mxCell id="chc9OdD4yWV7xc_dcuEu-274" value="Server" style="rounded=1;whiteSpace=wrap;html=1;fontSize=12;glass=0;strokeWidth=1;shadow=0;fillColor=#d5e8d4;strokeColor=#82b366;" vertex="1" parent="1">
          <mxGeometry x="-820" y="315" width="120" height="40" as="geometry" />
        </mxCell>
        <mxCell id="chc9OdD4yWV7xc_dcuEu-277" value="" style="endArrow=none;html=1;rounded=0;strokeWidth=4;fillColor=#d5e8d4;strokeColor=#82b366;" edge="1" parent="1">
          <mxGeometry width="50" height="50" relative="1" as="geometry">
            <mxPoint x="-764.99" y="289.5" as="sourcePoint" />
            <mxPoint x="550" y="280" as="targetPoint" />
          </mxGeometry>
        </mxCell>
        <mxCell id="chc9OdD4yWV7xc_dcuEu-280" value="HttpRequest" style="rounded=1;whiteSpace=wrap;html=1;fontSize=12;glass=0;strokeWidth=1;shadow=0;fillColor=#d5e8d4;strokeColor=#82b366;" vertex="1" parent="1">
          <mxGeometry x="929.9999999999999" y="1155" width="120" height="40" as="geometry" />
        </mxCell>
        <mxCell id="chc9OdD4yWV7xc_dcuEu-282" value="HttpResponse" style="rounded=1;whiteSpace=wrap;html=1;fontSize=12;glass=0;strokeWidth=1;shadow=0;fillColor=#d5e8d4;strokeColor=#82b366;" vertex="1" parent="1">
          <mxGeometry x="-800" y="1260" width="120" height="40" as="geometry" />
        </mxCell>
        <mxCell id="chc9OdD4yWV7xc_dcuEu-283" value="" style="endArrow=none;html=1;rounded=0;strokeWidth=4;fillColor=#d5e8d4;strokeColor=#82b366;" edge="1" parent="1">
          <mxGeometry width="50" height="50" relative="1" as="geometry">
            <mxPoint x="540" y="320" as="sourcePoint" />
            <mxPoint x="1085" y="1250" as="targetPoint" />
            <Array as="points">
              <mxPoint x="565" y="1250" />
            </Array>
          </mxGeometry>
        </mxCell>
        <mxCell id="chc9OdD4yWV7xc_dcuEu-285" value="" style="endArrow=none;html=1;rounded=0;strokeWidth=4;fillColor=#d5e8d4;strokeColor=#82b366;" edge="1" parent="1">
          <mxGeometry width="50" height="50" relative="1" as="geometry">
            <mxPoint x="-860" y="1250" as="sourcePoint" />
            <mxPoint x="560" y="1250" as="targetPoint" />
          </mxGeometry>
        </mxCell>
        <mxCell id="chc9OdD4yWV7xc_dcuEu-322" style="edgeStyle=orthogonalEdgeStyle;rounded=0;orthogonalLoop=1;jettySize=auto;html=1;exitX=1;exitY=0.5;exitDx=0;exitDy=0;entryX=0.5;entryY=0;entryDx=0;entryDy=0;" edge="1" parent="1" source="chc9OdD4yWV7xc_dcuEu-342" target="chc9OdD4yWV7xc_dcuEu-297">
          <mxGeometry relative="1" as="geometry" />
        </mxCell>
        <mxCell id="chc9OdD4yWV7xc_dcuEu-324" style="edgeStyle=orthogonalEdgeStyle;rounded=0;orthogonalLoop=1;jettySize=auto;html=1;exitX=1;exitY=0.5;exitDx=0;exitDy=0;entryX=0.5;entryY=0;entryDx=0;entryDy=0;" edge="1" parent="1" source="chc9OdD4yWV7xc_dcuEu-342" target="chc9OdD4yWV7xc_dcuEu-306">
          <mxGeometry relative="1" as="geometry" />
        </mxCell>
        <mxCell id="chc9OdD4yWV7xc_dcuEu-289" value="Server" style="swimlane;fontStyle=1;align=center;verticalAlign=top;childLayout=stackLayout;horizontal=1;startSize=26;horizontalStack=0;resizeParent=1;resizeParentMax=0;resizeLast=0;collapsible=1;marginBottom=0;whiteSpace=wrap;html=1;" vertex="1" parent="1">
          <mxGeometry x="-635" y="-1000" width="310" height="86" as="geometry" />
        </mxCell>
        <mxCell id="chc9OdD4yWV7xc_dcuEu-291" value="" style="line;strokeWidth=1;fillColor=none;align=left;verticalAlign=middle;spacingTop=-1;spacingLeft=3;spacingRight=3;rotatable=0;labelPosition=right;points=[];portConstraint=eastwest;strokeColor=inherit;" vertex="1" parent="chc9OdD4yWV7xc_dcuEu-289">
          <mxGeometry y="26" width="310" height="8" as="geometry" />
        </mxCell>
        <mxCell id="chc9OdD4yWV7xc_dcuEu-347" value="+ import_configuration(Configuration config): Result" style="text;strokeColor=none;fillColor=none;align=left;verticalAlign=top;spacingLeft=4;spacingRight=4;overflow=hidden;rotatable=0;points=[[0,0.5],[1,0.5]];portConstraint=eastwest;whiteSpace=wrap;html=1;" vertex="1" parent="chc9OdD4yWV7xc_dcuEu-289">
          <mxGeometry y="34" width="310" height="26" as="geometry" />
        </mxCell>
        <mxCell id="chc9OdD4yWV7xc_dcuEu-342" value="+ run(): Result" style="text;strokeColor=none;fillColor=none;align=left;verticalAlign=top;spacingLeft=4;spacingRight=4;overflow=hidden;rotatable=0;points=[[0,0.5],[1,0.5]];portConstraint=eastwest;whiteSpace=wrap;html=1;" vertex="1" parent="chc9OdD4yWV7xc_dcuEu-289">
          <mxGeometry y="60" width="310" height="26" as="geometry" />
        </mxCell>
        <mxCell id="chc9OdD4yWV7xc_dcuEu-293" value="Configuration" style="swimlane;fontStyle=1;align=center;verticalAlign=top;childLayout=stackLayout;horizontal=1;startSize=26;horizontalStack=0;resizeParent=1;resizeParentMax=0;resizeLast=0;collapsible=1;marginBottom=0;whiteSpace=wrap;html=1;" vertex="1" parent="1">
          <mxGeometry x="-880" y="-1000" width="210" height="60" as="geometry" />
        </mxCell>
        <mxCell id="chc9OdD4yWV7xc_dcuEu-295" value="" style="line;strokeWidth=1;fillColor=none;align=left;verticalAlign=middle;spacingTop=-1;spacingLeft=3;spacingRight=3;rotatable=0;labelPosition=right;points=[];portConstraint=eastwest;strokeColor=inherit;" vertex="1" parent="chc9OdD4yWV7xc_dcuEu-293">
          <mxGeometry y="26" width="210" height="8" as="geometry" />
        </mxCell>
        <mxCell id="chc9OdD4yWV7xc_dcuEu-296" value="+ parse_configuration_file(): Result" style="text;strokeColor=none;fillColor=none;align=left;verticalAlign=top;spacingLeft=4;spacingRight=4;overflow=hidden;rotatable=0;points=[[0,0.5],[1,0.5]];portConstraint=eastwest;whiteSpace=wrap;html=1;" vertex="1" parent="chc9OdD4yWV7xc_dcuEu-293">
          <mxGeometry y="34" width="210" height="26" as="geometry" />
        </mxCell>
        <mxCell id="chc9OdD4yWV7xc_dcuEu-323" style="edgeStyle=orthogonalEdgeStyle;rounded=0;orthogonalLoop=1;jettySize=auto;html=1;exitX=1;exitY=0.5;exitDx=0;exitDy=0;entryX=0.5;entryY=0;entryDx=0;entryDy=0;" edge="1" parent="1" source="chc9OdD4yWV7xc_dcuEu-342" target="chc9OdD4yWV7xc_dcuEu-301">
          <mxGeometry relative="1" as="geometry" />
        </mxCell>
        <mxCell id="chc9OdD4yWV7xc_dcuEu-297" value="Socket" style="swimlane;fontStyle=1;align=center;verticalAlign=top;childLayout=stackLayout;horizontal=1;startSize=26;horizontalStack=0;resizeParent=1;resizeParentMax=0;resizeLast=0;collapsible=1;marginBottom=0;whiteSpace=wrap;html=1;" vertex="1" parent="1">
          <mxGeometry x="-317.5" y="-860" width="347.5" height="138" as="geometry" />
        </mxCell>
        <mxCell id="chc9OdD4yWV7xc_dcuEu-298" value="+ connect_fd: int" style="text;strokeColor=none;fillColor=none;align=left;verticalAlign=top;spacingLeft=4;spacingRight=4;overflow=hidden;rotatable=0;points=[[0,0.5],[1,0.5]];portConstraint=eastwest;whiteSpace=wrap;html=1;" vertex="1" parent="chc9OdD4yWV7xc_dcuEu-297">
          <mxGeometry y="26" width="347.5" height="26" as="geometry" />
        </mxCell>
        <mxCell id="chc9OdD4yWV7xc_dcuEu-356" value="+ request_message: char*" style="text;strokeColor=none;fillColor=none;align=left;verticalAlign=top;spacingLeft=4;spacingRight=4;overflow=hidden;rotatable=0;points=[[0,0.5],[1,0.5]];portConstraint=eastwest;whiteSpace=wrap;html=1;" vertex="1" parent="chc9OdD4yWV7xc_dcuEu-297">
          <mxGeometry y="52" width="347.5" height="26" as="geometry" />
        </mxCell>
        <mxCell id="chc9OdD4yWV7xc_dcuEu-299" value="" style="line;strokeWidth=1;fillColor=none;align=left;verticalAlign=middle;spacingTop=-1;spacingLeft=3;spacingRight=3;rotatable=0;labelPosition=right;points=[];portConstraint=eastwest;strokeColor=inherit;" vertex="1" parent="chc9OdD4yWV7xc_dcuEu-297">
          <mxGeometry y="78" width="347.5" height="8" as="geometry" />
        </mxCell>
        <mxCell id="chc9OdD4yWV7xc_dcuEu-300" value="+ recv_request_from_client(char *request_message): Result" style="text;strokeColor=none;fillColor=none;align=left;verticalAlign=top;spacingLeft=4;spacingRight=4;overflow=hidden;rotatable=0;points=[[0,0.5],[1,0.5]];portConstraint=eastwest;whiteSpace=wrap;html=1;" vertex="1" parent="chc9OdD4yWV7xc_dcuEu-297">
          <mxGeometry y="86" width="347.5" height="26" as="geometry" />
        </mxCell>
        <mxCell id="chc9OdD4yWV7xc_dcuEu-377" value="+ send_response_to_client(HttpResponse response): Result" style="text;strokeColor=none;fillColor=none;align=left;verticalAlign=top;spacingLeft=4;spacingRight=4;overflow=hidden;rotatable=0;points=[[0,0.5],[1,0.5]];portConstraint=eastwest;whiteSpace=wrap;html=1;" vertex="1" parent="chc9OdD4yWV7xc_dcuEu-297">
          <mxGeometry y="112" width="347.5" height="26" as="geometry" />
        </mxCell>
        <mxCell id="chc9OdD4yWV7xc_dcuEu-301" value="HttpRequest" style="swimlane;fontStyle=1;align=center;verticalAlign=top;childLayout=stackLayout;horizontal=1;startSize=26;horizontalStack=0;resizeParent=1;resizeParentMax=0;resizeLast=0;collapsible=1;marginBottom=0;whiteSpace=wrap;html=1;" vertex="1" parent="1">
          <mxGeometry x="72" y="-860" width="332.5" height="190" as="geometry" />
        </mxCell>
        <mxCell id="chc9OdD4yWV7xc_dcuEu-302" value="+ method: string" style="text;strokeColor=none;fillColor=none;align=left;verticalAlign=top;spacingLeft=4;spacingRight=4;overflow=hidden;rotatable=0;points=[[0,0.5],[1,0.5]];portConstraint=eastwest;whiteSpace=wrap;html=1;" vertex="1" parent="chc9OdD4yWV7xc_dcuEu-301">
          <mxGeometry y="26" width="332.5" height="26" as="geometry" />
        </mxCell>
        <mxCell id="chc9OdD4yWV7xc_dcuEu-304" value="+ target: string" style="text;strokeColor=none;fillColor=none;align=left;verticalAlign=top;spacingLeft=4;spacingRight=4;overflow=hidden;rotatable=0;points=[[0,0.5],[1,0.5]];portConstraint=eastwest;whiteSpace=wrap;html=1;" vertex="1" parent="chc9OdD4yWV7xc_dcuEu-301">
          <mxGeometry y="52" width="332.5" height="26" as="geometry" />
        </mxCell>
        <mxCell id="chc9OdD4yWV7xc_dcuEu-336" value="+ http_version: string" style="text;strokeColor=none;fillColor=none;align=left;verticalAlign=top;spacingLeft=4;spacingRight=4;overflow=hidden;rotatable=0;points=[[0,0.5],[1,0.5]];portConstraint=eastwest;whiteSpace=wrap;html=1;" vertex="1" parent="chc9OdD4yWV7xc_dcuEu-301">
          <mxGeometry y="78" width="332.5" height="26" as="geometry" />
        </mxCell>
        <mxCell id="chc9OdD4yWV7xc_dcuEu-337" value="+ request_header: &amp;lt;string, string&amp;gt;" style="text;strokeColor=none;fillColor=none;align=left;verticalAlign=top;spacingLeft=4;spacingRight=4;overflow=hidden;rotatable=0;points=[[0,0.5],[1,0.5]];portConstraint=eastwest;whiteSpace=wrap;html=1;" vertex="1" parent="chc9OdD4yWV7xc_dcuEu-301">
          <mxGeometry y="104" width="332.5" height="26" as="geometry" />
        </mxCell>
        <mxCell id="chc9OdD4yWV7xc_dcuEu-338" value="+ request_body: char" style="text;strokeColor=none;fillColor=none;align=left;verticalAlign=top;spacingLeft=4;spacingRight=4;overflow=hidden;rotatable=0;points=[[0,0.5],[1,0.5]];portConstraint=eastwest;whiteSpace=wrap;html=1;" vertex="1" parent="chc9OdD4yWV7xc_dcuEu-301">
          <mxGeometry y="130" width="332.5" height="26" as="geometry" />
        </mxCell>
        <mxCell id="chc9OdD4yWV7xc_dcuEu-303" value="" style="line;strokeWidth=1;fillColor=none;align=left;verticalAlign=middle;spacingTop=-1;spacingLeft=3;spacingRight=3;rotatable=0;labelPosition=right;points=[];portConstraint=eastwest;strokeColor=inherit;" vertex="1" parent="chc9OdD4yWV7xc_dcuEu-301">
          <mxGeometry y="156" width="332.5" height="8" as="geometry" />
        </mxCell>
        <mxCell id="chc9OdD4yWV7xc_dcuEu-339" value="+ parse_request_message(char *request_message): Result" style="text;strokeColor=none;fillColor=none;align=left;verticalAlign=top;spacingLeft=4;spacingRight=4;overflow=hidden;rotatable=0;points=[[0,0.5],[1,0.5]];portConstraint=eastwest;whiteSpace=wrap;html=1;" vertex="1" parent="chc9OdD4yWV7xc_dcuEu-301">
          <mxGeometry y="164" width="332.5" height="26" as="geometry" />
        </mxCell>
        <mxCell id="chc9OdD4yWV7xc_dcuEu-306" value="HttpResponse" style="swimlane;fontStyle=1;align=center;verticalAlign=top;childLayout=stackLayout;horizontal=1;startSize=26;horizontalStack=0;resizeParent=1;resizeParentMax=0;resizeLast=0;collapsible=1;marginBottom=0;whiteSpace=wrap;html=1;" vertex="1" parent="1">
          <mxGeometry x="459.5" y="-860" width="295" height="138" as="geometry" />
        </mxCell>
        <mxCell id="chc9OdD4yWV7xc_dcuEu-307" value="+ http_version: string" style="text;strokeColor=none;fillColor=none;align=left;verticalAlign=top;spacingLeft=4;spacingRight=4;overflow=hidden;rotatable=0;points=[[0,0.5],[1,0.5]];portConstraint=eastwest;whiteSpace=wrap;html=1;" vertex="1" parent="chc9OdD4yWV7xc_dcuEu-306">
          <mxGeometry y="26" width="295" height="26" as="geometry" />
        </mxCell>
        <mxCell id="chc9OdD4yWV7xc_dcuEu-358" value="+ status_code: string" style="text;strokeColor=none;fillColor=none;align=left;verticalAlign=top;spacingLeft=4;spacingRight=4;overflow=hidden;rotatable=0;points=[[0,0.5],[1,0.5]];portConstraint=eastwest;whiteSpace=wrap;html=1;" vertex="1" parent="chc9OdD4yWV7xc_dcuEu-306">
          <mxGeometry y="52" width="295" height="26" as="geometry" />
        </mxCell>
        <mxCell id="chc9OdD4yWV7xc_dcuEu-357" value="+ ..." style="text;strokeColor=none;fillColor=none;align=left;verticalAlign=top;spacingLeft=4;spacingRight=4;overflow=hidden;rotatable=0;points=[[0,0.5],[1,0.5]];portConstraint=eastwest;whiteSpace=wrap;html=1;" vertex="1" parent="chc9OdD4yWV7xc_dcuEu-306">
          <mxGeometry y="78" width="295" height="26" as="geometry" />
        </mxCell>
        <mxCell id="chc9OdD4yWV7xc_dcuEu-308" value="" style="line;strokeWidth=1;fillColor=none;align=left;verticalAlign=middle;spacingTop=-1;spacingLeft=3;spacingRight=3;rotatable=0;labelPosition=right;points=[];portConstraint=eastwest;strokeColor=inherit;" vertex="1" parent="chc9OdD4yWV7xc_dcuEu-306">
          <mxGeometry y="104" width="295" height="8" as="geometry" />
        </mxCell>
        <mxCell id="chc9OdD4yWV7xc_dcuEu-309" value="+ create_response(HttpRequest request): Result" style="text;strokeColor=none;fillColor=none;align=left;verticalAlign=top;spacingLeft=4;spacingRight=4;overflow=hidden;rotatable=0;points=[[0,0.5],[1,0.5]];portConstraint=eastwest;whiteSpace=wrap;html=1;" vertex="1" parent="chc9OdD4yWV7xc_dcuEu-306">
          <mxGeometry y="112" width="295" height="26" as="geometry" />
        </mxCell>
        <mxCell id="chc9OdD4yWV7xc_dcuEu-316" style="edgeStyle=orthogonalEdgeStyle;rounded=0;orthogonalLoop=1;jettySize=auto;html=1;exitX=0.5;exitY=1;exitDx=0;exitDy=0;entryX=0.5;entryY=0;entryDx=0;entryDy=0;" edge="1" parent="1" source="chc9OdD4yWV7xc_dcuEu-310" target="chc9OdD4yWV7xc_dcuEu-293">
          <mxGeometry relative="1" as="geometry" />
        </mxCell>
        <mxCell id="chc9OdD4yWV7xc_dcuEu-363" style="edgeStyle=orthogonalEdgeStyle;rounded=0;orthogonalLoop=1;jettySize=auto;html=1;exitX=0.5;exitY=1;exitDx=0;exitDy=0;entryX=0.5;entryY=0;entryDx=0;entryDy=0;" edge="1" parent="1" source="chc9OdD4yWV7xc_dcuEu-310" target="chc9OdD4yWV7xc_dcuEu-289">
          <mxGeometry relative="1" as="geometry" />
        </mxCell>
        <mxCell id="chc9OdD4yWV7xc_dcuEu-310" value="Main" style="swimlane;fontStyle=1;align=center;verticalAlign=top;childLayout=stackLayout;horizontal=1;startSize=26;horizontalStack=0;resizeParent=1;resizeParentMax=0;resizeLast=0;collapsible=1;marginBottom=0;whiteSpace=wrap;html=1;" vertex="1" parent="1">
          <mxGeometry x="-855" y="-1110" width="160" height="34" as="geometry" />
        </mxCell>
        <mxCell id="chc9OdD4yWV7xc_dcuEu-312" value="" style="line;strokeWidth=1;fillColor=none;align=left;verticalAlign=middle;spacingTop=-1;spacingLeft=3;spacingRight=3;rotatable=0;labelPosition=right;points=[];portConstraint=eastwest;strokeColor=inherit;" vertex="1" parent="chc9OdD4yWV7xc_dcuEu-310">
          <mxGeometry y="26" width="160" height="8" as="geometry" />
        </mxCell>
        <mxCell id="chc9OdD4yWV7xc_dcuEu-365" style="edgeStyle=orthogonalEdgeStyle;rounded=0;orthogonalLoop=1;jettySize=auto;html=1;exitX=1;exitY=0.5;exitDx=0;exitDy=0;entryX=0.472;entryY=1.013;entryDx=0;entryDy=0;entryPerimeter=0;" edge="1" parent="1" source="chc9OdD4yWV7xc_dcuEu-309" target="chc9OdD4yWV7xc_dcuEu-342">
          <mxGeometry relative="1" as="geometry">
            <Array as="points">
              <mxPoint x="800" y="-735" />
              <mxPoint x="800" y="-590" />
              <mxPoint x="-489" y="-590" />
            </Array>
          </mxGeometry>
        </mxCell>
        <mxCell id="chc9OdD4yWV7xc_dcuEu-372" value="Result" style="swimlane;fontStyle=1;align=center;verticalAlign=top;childLayout=stackLayout;horizontal=1;startSize=26;horizontalStack=0;resizeParent=1;resizeParentMax=0;resizeLast=0;collapsible=1;marginBottom=0;whiteSpace=wrap;html=1;" vertex="1" parent="1">
          <mxGeometry x="-880" y="-870" width="180" height="86" as="geometry" />
        </mxCell>
        <mxCell id="chc9OdD4yWV7xc_dcuEu-373" value="+ success: int" style="text;strokeColor=none;fillColor=none;align=left;verticalAlign=top;spacingLeft=4;spacingRight=4;overflow=hidden;rotatable=0;points=[[0,0.5],[1,0.5]];portConstraint=eastwest;whiteSpace=wrap;html=1;" vertex="1" parent="chc9OdD4yWV7xc_dcuEu-372">
          <mxGeometry y="26" width="180" height="26" as="geometry" />
        </mxCell>
        <mxCell id="chc9OdD4yWV7xc_dcuEu-374" value="+ failure: int" style="text;strokeColor=none;fillColor=none;align=left;verticalAlign=top;spacingLeft=4;spacingRight=4;overflow=hidden;rotatable=0;points=[[0,0.5],[1,0.5]];portConstraint=eastwest;whiteSpace=wrap;html=1;" vertex="1" parent="chc9OdD4yWV7xc_dcuEu-372">
          <mxGeometry y="52" width="180" height="26" as="geometry" />
        </mxCell>
        <mxCell id="chc9OdD4yWV7xc_dcuEu-375" value="" style="line;strokeWidth=1;fillColor=none;align=left;verticalAlign=middle;spacingTop=-1;spacingLeft=3;spacingRight=3;rotatable=0;labelPosition=right;points=[];portConstraint=eastwest;strokeColor=inherit;" vertex="1" parent="chc9OdD4yWV7xc_dcuEu-372">
          <mxGeometry y="78" width="180" height="8" as="geometry" />
        </mxCell>
      </root>
    </mxGraphModel>
  </diagram>
</mxfile>
